<?xml version="1.0" encoding="UTF-8" standalone="no"?>
<!--AH Formatter V6.2 MR7 (6,2,9,19987) for Windows (x64) Copyright (c) 1999-2015 Antenna House, Inc.-->

<svg
   xmlns:dc="http://purl.org/dc/elements/1.1/"
   xmlns:cc="http://creativecommons.org/ns#"
   xmlns:rdf="http://www.w3.org/1999/02/22-rdf-syntax-ns#"
   xmlns:svg="http://www.w3.org/2000/svg"
   xmlns="http://www.w3.org/2000/svg"
   xmlns:sodipodi="http://sodipodi.sourceforge.net/DTD/sodipodi-0.dtd"
   xmlns:inkscape="http://www.inkscape.org/namespaces/inkscape"
   xml:space="preserve"
   version="1.1"
   font-style="normal"
   font-weight="normal"
   font-stretch="normal"
   width="317.267pt"
   height="66.792pt"
   viewBox="0 0 317.267 66.792"
   id="svg2"
   inkscape:version="0.91 r13725"
   sodipodi:docname="ahlogo_small.svg"
   style="font-style:normal;font-weight:normal;font-stretch:normal;fill:#000000;fill-rule:evenodd"><metadata
     id="metadata264"><rdf:RDF><cc:Work
         rdf:about=""><dc:format>image/svg+xml</dc:format><dc:type
           rdf:resource="http://purl.org/dc/dcmitype/StillImage" /><dc:title></dc:title></cc:Work></rdf:RDF></metadata><sodipodi:namedview
     pagecolor="#ffffff"
     bordercolor="#666666"
     borderopacity="1"
     objecttolerance="10"
     gridtolerance="10"
     guidetolerance="10"
     inkscape:pageopacity="0"
     inkscape:pageshadow="2"
     inkscape:window-width="1345"
     inkscape:window-height="877"
     id="namedview262"
     showgrid="false"
     fit-margin-top="0"
     fit-margin-left="0"
     fit-margin-right="0"
     fit-margin-bottom="0"
     inkscape:zoom="0.22422803"
     inkscape:cx="228.015"
     inkscape:cy="-60.0225"
     inkscape:window-x="352"
     inkscape:window-y="77"
     inkscape:window-maximized="0"
     inkscape:current-layer="svg2" /><defs
     id="defs4"><clipPath
       id="c0"><rect
         x="0"
         y="0"
         width="595"
         height="842"
         id="rect7"
         style="clip-rule:evenodd;fill:none" /></clipPath><clipPath
       id="c1"><rect
         x="0"
         y="0"
         width="595"
         height="842"
         id="rect10"
         style="clip-rule:evenodd;fill:none" /></clipPath></defs><g
     clip-path="url(#c0)"
     id="g12"
     transform="translate(-115.088,-306.19)"><g
       id="g14"><view
         viewBox="0 0 595 842"
         id="p1" /></g><g
       transform="matrix(1,0,0,-1,0,842)"
       clip-path="url(#c1)"
       id="g16"><g
         id="g18"
         style="stroke-opacity:0"><path
           d="m 1986.36,5331.66 -0.48,-82.79 -43.43,0.26 43.91,82.53 z m -2.41,22.34 -91.91,-168.56 15.91,-0.08 27.62,50.85 50.21,-0.28 0.1,-50.99 15.06,-0.1 -0.56,169.09 -16.43,0.07"
           transform="scale(0.1,0.1)"
           id="path20"
           inkscape:connector-curvature="0"
           style="fill:#007300;fill-rule:nonzero" /></g><g
         transform="scale(0.1,0.1)"
         id="g22"
         style="fill-opacity:0;stroke-width:2.5"><path
           d="m 1986.36,5331.66 -0.48,-82.79 -43.43,0.26 43.91,82.53 z"
           id="path24"
           inkscape:connector-curvature="0"
           style="fill:none;stroke:#007300" /></g><g
         transform="scale(0.1,0.1)"
         id="g26"
         style="fill-opacity:0;stroke-width:2.5"><path
           d="m 1983.95,5354 -91.91,-168.56 15.91,-0.08 27.62,50.85 50.21,-0.28 0.1,-50.99 15.06,-0.1 -0.56,169.09 -16.43,0.07 z"
           id="path28"
           inkscape:connector-curvature="0"
           style="fill:none;stroke:#007300" /></g><g
         transform="scale(0.1,0.1)"
         id="g30"
         style="stroke-width:2.5;stroke-opacity:0"><path
           d="m 2159.41,5339.77 13.85,-0.07 c 15.56,-0.07 26.51,-3.42 32.83,-9.98 6.34,-6.53 9.15,-17.22 8.35,-32.01 -0.35,-6.49 -1.51,-14.35 -3.46,-23.58 -1.96,-9.2 -4.63,-19 -7.89,-29.36 -2.32,-7.31 -5.08,-13.76 -8.23,-19.39 -3.15,-5.63 -6.67,-10.34 -10.54,-14.13 -5.33,-5.16 -11.26,-8.8 -17.87,-10.88 -6.56,-2.11 -17.67,-3.11 -33.34,-3.05 l -12.73,0.08 39.03,142.37 z m -29.48,-155.66 c 19.84,-0.11 34.16,1.33 42.98,4.32 8.82,3.05 16.74,8.17 23.8,15.46 4.51,4.7 8.73,10.78 12.56,18.19 3.87,7.42 7.23,16.04 10.19,25.79 2.97,9.9 5.38,19.2 7.09,27.87 1.76,8.65 2.81,16.16 3.17,22.59 0.46,8.85 -0.45,16.81 -2.66,23.88 -2.22,7.11 -5.78,12.99 -10.56,17.77 -4.68,4.67 -10,7.99 -16.03,9.95 -6.04,1.94 -15.37,2.94 -28.01,3.04 l -24.63,0.13 -46.01,-168.81 28.11,-0.18"
           id="path32"
           inkscape:connector-curvature="0"
           style="fill:#007300;fill-rule:nonzero" /></g><g
         transform="scale(0.1,0.1)"
         id="g34"
         style="fill-opacity:0;stroke-width:2.5"><path
           d="m 2159.41,5339.77 13.85,-0.07 c 15.56,-0.07 26.51,-3.42 32.83,-9.98 6.34,-6.53 9.15,-17.22 8.35,-32.01 -0.35,-6.49 -1.51,-14.35 -3.46,-23.58 -1.96,-9.2 -4.63,-19 -7.89,-29.36 -2.32,-7.31 -5.08,-13.76 -8.23,-19.39 -3.15,-5.63 -6.67,-10.34 -10.54,-14.13 -5.33,-5.16 -11.26,-8.8 -17.87,-10.88 -6.56,-2.11 -17.67,-3.11 -33.34,-3.05 l -12.73,0.08 39.03,142.37 z"
           id="path36"
           inkscape:connector-curvature="0"
           style="fill:none;stroke:#007300" /></g><g
         transform="scale(0.1,0.1)"
         id="g38"
         style="fill-opacity:0;stroke-width:2.5"><path
           d="m 2129.93,5184.11 c 19.84,-0.11 34.16,1.33 42.98,4.32 8.82,3.05 16.74,8.17 23.8,15.46 4.51,4.7 8.73,10.78 12.56,18.19 3.87,7.42 7.23,16.04 10.19,25.79 2.97,9.9 5.38,19.2 7.09,27.87 1.76,8.65 2.81,16.16 3.17,22.59 0.46,8.85 -0.45,16.81 -2.66,23.88 -2.22,7.11 -5.78,12.99 -10.56,17.77 -4.68,4.67 -10,7.99 -16.03,9.95 -6.04,1.94 -15.37,2.94 -28.01,3.04 l -24.63,0.13 -46.01,-168.81 28.11,-0.18 z"
           id="path40"
           inkscape:connector-curvature="0"
           style="fill:none;stroke:#007300" /></g><g
         transform="scale(0.1,0.1)"
         id="g42"
         style="stroke-width:2.5;stroke-opacity:0"><path
           d="m 2290.19,5205.07 c -5.68,-8.52 -12.81,-12.77 -21.41,-12.75 -5.43,0.06 -9.71,1.76 -12.77,5.21 -3.07,3.39 -4.48,7.97 -4.17,13.69 0.75,14.21 18.14,26.22 52.22,36.02 l 1.06,0.22 c -4.28,-19.75 -9.25,-33.9 -14.93,-42.39 z m -7.99,89.17 c 3.77,3.39 8.75,5.05 14.87,5.02 5.63,-0.02 9.9,-1.46 12.77,-4.32 2.86,-2.84 4.18,-7.01 3.87,-12.44 -0.4,-7.44 -2.32,-13.22 -5.78,-17.37 -3.47,-4.12 -11.26,-8.06 -23.42,-11.81 -18.4,-5.73 -30.62,-11.68 -36.64,-17.92 -6.03,-6.23 -9.35,-14.68 -9.9,-25.38 -0.46,-8.7 1.8,-15.78 6.78,-21.24 5.02,-5.43 11.81,-8.19 20.31,-8.24 5.03,-0.02 9.8,0.88 14.22,2.79 4.42,1.86 8.9,4.9 13.42,8.99 0.55,-3.77 1.96,-6.5 4.18,-8.32 2.15,-1.73 5.32,-2.63 9.5,-2.68 1.2,0 2.51,0.1 4.01,0.22 1.42,0.16 3.02,0.4 4.73,0.71 l 2.81,10.05 c -0.4,-0.07 -0.8,-0.12 -1.2,-0.17 -0.45,-0.03 -1.05,-0.06 -1.92,-0.06 -2.71,0.03 -4.71,0.78 -6.18,2.3 -1.45,1.47 -2.11,3.46 -2.01,5.9 0.11,1.38 0.2,2.52 0.35,3.44 0.16,0.91 0.41,1.84 0.66,2.75 l 16.29,60.26 c 1.31,4.9 2.31,9.02 2.97,12.39 0.7,3.37 1.1,6.28 1.2,8.74 0.35,6.36 -2.16,11.69 -7.49,16.06 -5.37,4.35 -12.27,6.56 -20.66,6.61 -10.55,0.08 -19.3,-2.71 -26.33,-8.32 -7,-5.58 -11.97,-13.82 -14.89,-24.7 l 13.88,-0.05 c 2.67,7.82 5.83,13.44 9.6,16.79"
           id="path44"
           inkscape:connector-curvature="0"
           style="fill:#007300;fill-rule:nonzero" /></g><g
         transform="scale(0.1,0.1)"
         id="g46"
         style="fill-opacity:0;stroke-width:2.5"><path
           d="m 2290.19,5205.07 c -5.68,-8.52 -12.81,-12.77 -21.41,-12.75 -5.43,0.06 -9.71,1.76 -12.77,5.21 -3.07,3.39 -4.48,7.97 -4.17,13.69 0.75,14.21 18.14,26.22 52.22,36.02 l 1.06,0.22 c -4.28,-19.75 -9.25,-33.9 -14.93,-42.39 z"
           id="path48"
           inkscape:connector-curvature="0"
           style="fill:none;stroke:#007300" /></g><g
         transform="scale(0.1,0.1)"
         id="g50"
         style="fill-opacity:0;stroke-width:2.5"><path
           d="m 2282.2,5294.24 c 3.77,3.39 8.75,5.05 14.87,5.02 5.63,-0.02 9.9,-1.46 12.77,-4.32 2.86,-2.84 4.18,-7.01 3.87,-12.44 -0.4,-7.44 -2.32,-13.22 -5.78,-17.37 -3.47,-4.12 -11.26,-8.06 -23.42,-11.81 -18.4,-5.73 -30.62,-11.68 -36.64,-17.92 -6.03,-6.23 -9.35,-14.68 -9.9,-25.38 -0.46,-8.7 1.8,-15.78 6.78,-21.24 5.02,-5.43 11.81,-8.19 20.31,-8.24 5.03,-0.02 9.8,0.88 14.22,2.79 4.42,1.86 8.9,4.9 13.42,8.99 0.55,-3.77 1.96,-6.5 4.18,-8.32 2.15,-1.73 5.32,-2.63 9.5,-2.68 1.2,0 2.51,0.1 4.01,0.22 1.42,0.16 3.02,0.4 4.73,0.71 l 2.81,10.05 c -0.4,-0.07 -0.8,-0.12 -1.2,-0.17 -0.45,-0.03 -1.05,-0.06 -1.92,-0.06 -2.71,0.03 -4.71,0.78 -6.18,2.3 -1.45,1.47 -2.11,3.46 -2.01,5.9 0.11,1.38 0.2,2.52 0.35,3.44 0.16,0.91 0.41,1.84 0.66,2.75 l 16.29,60.26 c 1.31,4.9 2.31,9.02 2.97,12.39 0.7,3.37 1.1,6.28 1.2,8.74 0.35,6.36 -2.16,11.69 -7.49,16.06 -5.37,4.35 -12.27,6.56 -20.66,6.61 -10.55,0.08 -19.3,-2.71 -26.33,-8.32 -7,-5.58 -11.97,-13.82 -14.89,-24.7 l 13.88,-0.05 c 2.67,7.82 5.83,13.44 9.6,16.79 z"
           id="path52"
           inkscape:connector-curvature="0"
           style="fill:none;stroke:#007300" /></g><g
         transform="scale(0.1,0.1)"
         id="g54"
         style="stroke-width:2.5;stroke-opacity:0"><path
           d="m 2377.34,5297.4 -10.8,0.08 2.61,9.85 11.16,-0.07 9.81,34.6 13.61,-0.07 -9.75,-34.61 17.4,-0.1 -2.62,-9.85 -17.49,0.1 -21.56,-76.13 c -1.76,-6.16 -3.02,-10.78 -3.73,-13.8 -0.7,-2.99 -1.05,-5.32 -1.14,-7.01 -0.16,-3.07 0.49,-5.25 1.95,-6.61 1.56,-1.33 4.07,-2 7.64,-2.03 1.36,0 2.56,0.03 3.52,0.1 0.96,0.08 1.85,0.17 2.81,0.33 l -2.81,-10 c -2.06,-0.29 -3.97,-0.48 -5.64,-0.64 -1.7,-0.12 -3.11,-0.17 -4.21,-0.17 -5.68,0.05 -10,1.45 -13.07,4.32 -3.07,2.86 -4.42,6.84 -4.17,11.97 0.15,2.28 0.59,5.19 1.41,8.77 0.8,3.56 2.01,8.16 3.61,13.84 l 21.46,77.13"
           id="path56"
           inkscape:connector-curvature="0"
           style="fill:#007300;fill-rule:nonzero" /></g><g
         transform="scale(0.1,0.1)"
         id="g58"
         style="fill-opacity:0;stroke-width:2.5"><path
           d="m 2377.34,5297.4 -10.8,0.08 2.61,9.85 11.16,-0.07 9.81,34.6 13.61,-0.07 -9.75,-34.61 17.4,-0.1 -2.62,-9.85 -17.49,0.1 -21.56,-76.13 c -1.76,-6.16 -3.02,-10.78 -3.73,-13.8 -0.7,-2.99 -1.05,-5.32 -1.14,-7.01 -0.16,-3.07 0.49,-5.25 1.95,-6.61 1.56,-1.33 4.07,-2 7.64,-2.03 1.36,0 2.56,0.03 3.52,0.1 0.96,0.08 1.85,0.17 2.81,0.33 l -2.81,-10 c -2.06,-0.29 -3.97,-0.48 -5.64,-0.64 -1.7,-0.12 -3.11,-0.17 -4.21,-0.17 -5.68,0.05 -10,1.45 -13.07,4.32 -3.07,2.86 -4.42,6.84 -4.17,11.97 0.15,2.28 0.59,5.19 1.41,8.77 0.8,3.56 2.01,8.16 3.61,13.84 l 21.46,77.13 z"
           id="path60"
           inkscape:connector-curvature="0"
           style="fill:none;stroke:#007300" /></g><g
         transform="scale(0.1,0.1)"
         id="g62"
         style="stroke-width:2.5;stroke-opacity:0"><path
           d="m 2463.24,5204.06 c -5.67,-8.49 -12.81,-12.74 -21.35,-12.69 -5.44,0.02 -9.76,1.74 -12.83,5.18 -3.05,3.39 -4.47,7.99 -4.12,13.7 0.7,14.19 18.16,26.18 52.18,36.01 l 1.06,0.25 c -4.27,-19.78 -9.25,-33.9 -14.94,-42.45 z m -7.94,89.22 c 3.77,3.37 8.7,5.05 14.84,5 5.62,-0.02 9.9,-1.45 12.76,-4.32 2.91,-2.87 4.22,-7.01 3.92,-12.46 -0.4,-7.42 -2.31,-13.22 -5.78,-17.35 -3.52,-4.12 -11.31,-8.04 -23.42,-11.81 -18.4,-5.7 -30.67,-11.68 -36.64,-17.89 -6.09,-6.26 -9.36,-14.7 -9.96,-25.41 -0.45,-8.7 1.81,-15.79 6.84,-21.24 4.97,-5.44 11.76,-8.19 20.25,-8.24 5.08,-0.03 9.81,0.9 14.23,2.8 4.42,1.88 8.9,4.89 13.42,8.99 0.55,-3.77 1.97,-6.51 4.17,-8.29 2.16,-1.77 5.38,-2.67 9.5,-2.7 1.21,0 2.56,0.08 4.03,0.21 1.45,0.17 3,0.4 4.72,0.72 l 2.87,10.03 c -0.41,-0.05 -0.86,-0.15 -1.26,-0.15 -0.45,-0.04 -1.06,-0.04 -1.86,-0.04 -2.72,0.01 -4.78,0.76 -6.24,2.25 -1.46,1.48 -2.11,3.47 -1.96,5.91 0.06,1.39 0.15,2.54 0.36,3.44 0.14,0.9 0.4,1.81 0.65,2.74 l 16.23,60.29 c 1.31,4.88 2.32,9 3.02,12.37 0.65,3.37 1.06,6.28 1.2,8.74 0.35,6.33 -2.16,11.72 -7.54,16.06 -5.37,4.37 -12.26,6.59 -20.65,6.61 -10.56,0.07 -19.3,-2.71 -26.29,-8.29 -7.03,-5.61 -11.96,-13.82 -14.93,-24.71 l 13.87,-0.1 c 2.67,7.84 5.88,13.5 9.65,16.84"
           id="path64"
           inkscape:connector-curvature="0"
           style="fill:#007300;fill-rule:nonzero" /></g><g
         transform="scale(0.1,0.1)"
         id="g66"
         style="fill-opacity:0;stroke-width:2.5"><path
           d="m 2463.24,5204.06 c -5.67,-8.49 -12.81,-12.74 -21.35,-12.69 -5.44,0.02 -9.76,1.74 -12.83,5.18 -3.05,3.39 -4.47,7.99 -4.12,13.7 0.7,14.19 18.16,26.18 52.18,36.01 l 1.06,0.25 c -4.27,-19.78 -9.25,-33.9 -14.94,-42.45 z"
           id="path68"
           inkscape:connector-curvature="0"
           style="fill:none;stroke:#007300" /></g><g
         transform="scale(0.1,0.1)"
         id="g70"
         style="fill-opacity:0;stroke-width:2.5"><path
           d="m 2455.3,5293.28 c 3.77,3.37 8.7,5.05 14.84,5 5.62,-0.02 9.9,-1.45 12.76,-4.32 2.91,-2.87 4.22,-7.01 3.92,-12.46 -0.4,-7.42 -2.31,-13.22 -5.78,-17.35 -3.52,-4.12 -11.31,-8.04 -23.42,-11.81 -18.4,-5.7 -30.67,-11.68 -36.64,-17.89 -6.09,-6.26 -9.36,-14.7 -9.96,-25.41 -0.45,-8.7 1.81,-15.79 6.84,-21.24 4.97,-5.44 11.76,-8.19 20.25,-8.24 5.08,-0.03 9.81,0.9 14.23,2.8 4.42,1.88 8.9,4.89 13.42,8.99 0.55,-3.77 1.97,-6.51 4.17,-8.29 2.16,-1.77 5.38,-2.67 9.5,-2.7 1.21,0 2.56,0.08 4.03,0.21 1.45,0.17 3,0.4 4.72,0.72 l 2.87,10.03 c -0.41,-0.05 -0.86,-0.15 -1.26,-0.15 -0.45,-0.04 -1.06,-0.04 -1.86,-0.04 -2.72,0.01 -4.78,0.76 -6.24,2.25 -1.46,1.48 -2.11,3.47 -1.96,5.91 0.06,1.39 0.15,2.54 0.36,3.44 0.14,0.9 0.4,1.81 0.65,2.74 l 16.23,60.29 c 1.31,4.88 2.32,9 3.02,12.37 0.65,3.37 1.06,6.28 1.2,8.74 0.35,6.33 -2.16,11.72 -7.54,16.06 -5.37,4.37 -12.26,6.59 -20.65,6.61 -10.56,0.07 -19.3,-2.71 -26.29,-8.29 -7.03,-5.61 -11.96,-13.82 -14.93,-24.71 l 13.87,-0.1 c 2.67,7.84 5.88,13.5 9.65,16.84 z"
           id="path72"
           inkscape:connector-curvature="0"
           style="fill:none;stroke:#007300" /></g><g
         transform="scale(0.1,0.1)"
         id="g74"
         style="stroke-width:2.5;stroke-opacity:0"><path
           d="m 2636.01,5350.36 15.08,-0.13 -31.17,-113.47 c -0.96,-3.44 -1.71,-6.71 -2.31,-9.8 -0.56,-3.09 -0.91,-5.94 -1.06,-8.52 -0.46,-9.1 1.81,-16.01 6.79,-20.76 5.02,-4.72 12.62,-7.14 22.87,-7.16 11.15,-0.08 19.75,2.91 25.78,8.99 6.08,6.09 11.81,18.97 17.24,38.71 l 30.36,111.64 15.03,-0.09 -31.21,-114.87 c -6.29,-22.99 -13.62,-38.33 -22.07,-45.99 -8.44,-7.67 -20.66,-11.46 -36.64,-11.39 -14.22,0.11 -25.13,3.57 -32.77,10.46 -7.59,6.86 -11.06,16.53 -10.41,28.95 0.3,5.43 2.16,14.61 5.58,27.47 l 0.4,1.61 28.51,104.35"
           id="path76"
           inkscape:connector-curvature="0"
           style="fill:#007300;fill-rule:nonzero" /></g><g
         transform="scale(0.1,0.1)"
         id="g78"
         style="fill-opacity:0;stroke-width:2.5"><path
           d="m 2636.01,5350.36 15.08,-0.13 -31.17,-113.47 c -0.96,-3.44 -1.71,-6.71 -2.31,-9.8 -0.56,-3.09 -0.91,-5.94 -1.06,-8.52 -0.46,-9.1 1.81,-16.01 6.79,-20.76 5.02,-4.72 12.62,-7.14 22.87,-7.16 11.15,-0.08 19.75,2.91 25.78,8.99 6.08,6.09 11.81,18.97 17.24,38.71 l 30.36,111.64 15.03,-0.09 -31.21,-114.87 c -6.29,-22.99 -13.62,-38.33 -22.07,-45.99 -8.44,-7.67 -20.66,-11.46 -36.64,-11.39 -14.22,0.11 -25.13,3.57 -32.77,10.46 -7.59,6.86 -11.06,16.53 -10.41,28.95 0.3,5.43 2.16,14.61 5.58,27.47 l 0.4,1.61 28.51,104.35 z"
           id="path80"
           inkscape:connector-curvature="0"
           style="fill:none;stroke:#007300" /></g><g
         transform="scale(0.1,0.1)"
         id="g82"
         style="stroke-width:2.5;stroke-opacity:0"><path
           d="m 2728.89,5214.27 13.27,-0.08 -0.15,-2.54 c -0.35,-7.28 1.2,-12.94 4.73,-16.92 3.47,-3.96 8.69,-5.97 15.57,-6.02 7.05,-0.03 13.02,2.34 17.9,7.13 4.93,4.8 7.59,10.97 7.94,18.48 0.25,5.2 -0.9,9.57 -3.46,13.06 -2.62,3.52 -7.8,7.27 -15.59,11.32 -10.65,5.52 -17.49,10.75 -20.51,15.6 -3.02,4.85 -4.32,11.01 -3.91,18.4 0.55,10.3 4.47,18.8 11.71,25.46 7.28,6.68 16.28,9.98 26.88,9.93 9.91,-0.08 17.6,-3.07 23.12,-9.05 5.54,-5.98 8.05,-13.95 7.55,-23.93 l -0.05,-0.45 -12.97,0.07 c -0.05,6.72 -1.76,12.07 -5.23,16.06 -3.46,3.98 -8.09,5.98 -13.83,6.04 -6.72,0.02 -12.26,-2.22 -16.58,-6.74 -4.32,-4.5 -6.69,-10.41 -7.09,-17.67 -0.25,-4.65 0.96,-8.65 3.52,-11.99 2.61,-3.32 7.84,-7.01 15.63,-11.03 10.11,-5.07 16.84,-10.13 20.21,-15.08 3.42,-4.95 4.87,-11.21 4.52,-18.8 -0.59,-11.06 -4.71,-20.21 -12.31,-27.39 -7.59,-7.19 -16.84,-10.73 -27.8,-10.68 -10.65,0.07 -18.94,3.17 -24.98,9.27 -6.03,6.11 -8.8,14.3 -8.24,24.56 l 0.15,2.99"
           id="path84"
           inkscape:connector-curvature="0"
           style="fill:#007300;fill-rule:nonzero" /></g><g
         transform="scale(0.1,0.1)"
         id="g86"
         style="fill-opacity:0;stroke-width:2.5"><path
           d="m 2728.89,5214.27 13.27,-0.08 -0.15,-2.54 c -0.35,-7.28 1.2,-12.94 4.73,-16.92 3.47,-3.96 8.69,-5.97 15.57,-6.02 7.05,-0.03 13.02,2.34 17.9,7.13 4.93,4.8 7.59,10.97 7.94,18.48 0.25,5.2 -0.9,9.57 -3.46,13.06 -2.62,3.52 -7.8,7.27 -15.59,11.32 -10.65,5.52 -17.49,10.75 -20.51,15.6 -3.02,4.85 -4.32,11.01 -3.91,18.4 0.55,10.3 4.47,18.8 11.71,25.46 7.28,6.68 16.28,9.98 26.88,9.93 9.91,-0.08 17.6,-3.07 23.12,-9.05 5.54,-5.98 8.05,-13.95 7.55,-23.93 l -0.05,-0.45 -12.97,0.07 c -0.05,6.72 -1.76,12.07 -5.23,16.06 -3.46,3.98 -8.09,5.98 -13.83,6.04 -6.72,0.02 -12.26,-2.22 -16.58,-6.74 -4.32,-4.5 -6.69,-10.41 -7.09,-17.67 -0.25,-4.65 0.96,-8.65 3.52,-11.99 2.61,-3.32 7.84,-7.01 15.63,-11.03 10.11,-5.07 16.84,-10.13 20.21,-15.08 3.42,-4.95 4.87,-11.21 4.52,-18.8 -0.59,-11.06 -4.71,-20.21 -12.31,-27.39 -7.59,-7.19 -16.84,-10.73 -27.8,-10.68 -10.65,0.07 -18.94,3.17 -24.98,9.27 -6.03,6.11 -8.8,14.3 -8.24,24.56 l 0.15,2.99 z"
           id="path88"
           inkscape:connector-curvature="0"
           style="fill:none;stroke:#007300" /></g><g
         transform="scale(0.1,0.1)"
         id="g90"
         style="stroke-width:2.5;stroke-opacity:0"><path
           d="m 2881.5,5201.7 c -5.69,-8.5 -12.83,-12.74 -21.42,-12.68 -5.43,0.02 -9.7,1.75 -12.77,5.17 -3.06,3.42 -4.47,7.99 -4.17,13.69 0.75,14.2 18.15,26.22 52.22,36.01 l 1.06,0.23 c -4.27,-19.73 -9.25,-33.89 -14.92,-42.42 z m -8,89.22 c 3.77,3.37 8.7,5.05 14.83,5 5.67,-0.03 9.95,-1.46 12.81,-4.3 2.88,-2.87 4.17,-7.01 3.87,-12.46 -0.4,-7.44 -2.3,-13.25 -5.77,-17.37 -3.48,-4.09 -11.32,-8.04 -23.43,-11.84 -18.4,-5.68 -30.6,-11.66 -36.64,-17.86 -6.03,-6.24 -9.35,-14.71 -9.9,-25.41 -0.51,-8.7 1.8,-15.79 6.78,-21.24 5.02,-5.45 11.76,-8.19 20.31,-8.24 5.03,-0.03 9.8,0.91 14.23,2.79 4.42,1.89 8.89,4.87 13.41,8.99 0.56,-3.77 1.97,-6.51 4.13,-8.29 2.21,-1.75 5.38,-2.66 9.5,-2.69 1.2,0 2.56,0.05 4.07,0.2 1.41,0.18 3.02,0.37 4.67,0.74 l 2.87,10.02 c -0.4,-0.07 -0.81,-0.13 -1.21,-0.15 -0.45,-0.03 -1.06,-0.05 -1.9,-0.05 -2.67,0.02 -4.74,0.78 -6.19,2.29 -1.51,1.45 -2.17,3.43 -2.01,5.88 0.1,1.38 0.2,2.53 0.35,3.44 0.15,0.9 0.4,1.84 0.7,2.74 l 16.23,60.29 c 1.31,4.88 2.32,9 2.97,12.36 0.71,3.4 1.11,6.29 1.21,8.75 0.36,6.33 -2.16,11.69 -7.49,16.09 -5.38,4.34 -12.26,6.53 -20.66,6.58 -10.56,0.08 -19.3,-2.69 -26.34,-8.29 -6.98,-5.61 -11.96,-13.85 -14.87,-24.71 l 13.86,-0.1 c 2.63,7.84 5.84,13.47 9.61,16.84"
           id="path92"
           inkscape:connector-curvature="0"
           style="fill:#007300;fill-rule:nonzero" /></g><g
         transform="scale(0.1,0.1)"
         id="g94"
         style="fill-opacity:0;stroke-width:2.5"><path
           d="m 2881.5,5201.7 c -5.69,-8.5 -12.83,-12.74 -21.42,-12.68 -5.43,0.02 -9.7,1.75 -12.77,5.17 -3.06,3.42 -4.47,7.99 -4.17,13.69 0.75,14.2 18.15,26.22 52.22,36.01 l 1.06,0.23 c -4.27,-19.73 -9.25,-33.89 -14.92,-42.42 z"
           id="path96"
           inkscape:connector-curvature="0"
           style="fill:none;stroke:#007300" /></g><g
         transform="scale(0.1,0.1)"
         id="g98"
         style="fill-opacity:0;stroke-width:2.5"><path
           d="m 2873.5,5290.92 c 3.77,3.37 8.7,5.05 14.83,5 5.67,-0.03 9.95,-1.46 12.81,-4.3 2.88,-2.87 4.17,-7.01 3.87,-12.46 -0.4,-7.44 -2.3,-13.25 -5.77,-17.37 -3.48,-4.09 -11.32,-8.04 -23.43,-11.84 -18.4,-5.68 -30.6,-11.66 -36.64,-17.86 -6.03,-6.24 -9.35,-14.71 -9.9,-25.41 -0.51,-8.7 1.8,-15.79 6.78,-21.24 5.02,-5.45 11.76,-8.19 20.31,-8.24 5.03,-0.03 9.8,0.91 14.23,2.79 4.42,1.89 8.89,4.87 13.41,8.99 0.56,-3.77 1.97,-6.51 4.13,-8.29 2.21,-1.75 5.38,-2.66 9.5,-2.69 1.2,0 2.56,0.05 4.07,0.2 1.41,0.18 3.02,0.37 4.67,0.74 l 2.87,10.02 c -0.4,-0.07 -0.81,-0.13 -1.21,-0.15 -0.45,-0.03 -1.06,-0.05 -1.9,-0.05 -2.67,0.02 -4.74,0.78 -6.19,2.29 -1.51,1.45 -2.17,3.43 -2.01,5.88 0.1,1.38 0.2,2.53 0.35,3.44 0.15,0.9 0.4,1.84 0.7,2.74 l 16.23,60.29 c 1.31,4.88 2.32,9 2.97,12.36 0.71,3.4 1.11,6.29 1.21,8.75 0.36,6.33 -2.16,11.69 -7.49,16.09 -5.38,4.34 -12.26,6.53 -20.66,6.58 -10.56,0.08 -19.3,-2.69 -26.34,-8.29 -6.98,-5.61 -11.96,-13.85 -14.87,-24.71 l 13.86,-0.1 c 2.63,7.84 5.84,13.47 9.61,16.84 z"
           id="path100"
           inkscape:connector-curvature="0"
           style="fill:none;stroke:#007300" /></g><g
         transform="scale(0.1,0.1)"
         id="g102"
         style="stroke-width:2.5;stroke-opacity:0"><path
           d="m 3017.1,5288.2 c 2.97,-4.47 4.28,-11.13 3.82,-19.9 -0.5,-9.17 -2.31,-19.55 -5.53,-31.14 -3.21,-11.56 -6.93,-21.31 -11.15,-29.23 -3.83,-6.91 -8,-12.11 -12.52,-15.57 -4.47,-3.45 -9.3,-5.16 -14.52,-5.13 -6.59,0.04 -11.56,2.23 -14.93,6.63 -3.38,4.34 -4.83,10.6 -4.38,18.72 0.16,3.57 0.8,7.89 1.87,12.92 1.05,5.05 2.81,11.61 5.22,19.71 2.25,7.63 4.02,13.42 5.48,17.33 1.36,3.95 2.76,7.32 4.22,10.13 3.57,7.27 7.84,12.79 12.66,16.62 4.93,3.84 10.06,5.73 15.49,5.7 6.48,-0.03 11.25,-2.28 14.27,-6.79 z m -70.37,-108.69 3.72,13.37 c 2.22,-5.86 5.48,-10.11 9.8,-12.82 4.33,-2.68 10,-4.08 16.95,-4.09 6.83,-0.05 13.21,1.67 19.15,5.14 5.97,3.5 11.31,8.7 16.03,15.64 5.88,8.29 10.9,18.97 15.08,32.02 4.17,13.07 6.54,25.68 7.19,37.92 0.7,12.99 -1.42,22.87 -6.29,29.61 -4.88,6.76 -12.41,10.2 -22.57,10.25 -5.27,0.03 -10.25,-1.1 -14.87,-3.37 -4.63,-2.26 -9.06,-5.7 -13.17,-10.33 l 15.28,55.45 -13.88,0.12 -46.38,-168.84 13.96,-0.07"
           id="path104"
           inkscape:connector-curvature="0"
           style="fill:#007300;fill-rule:nonzero" /></g><g
         transform="scale(0.1,0.1)"
         id="g106"
         style="fill-opacity:0;stroke-width:2.5"><path
           d="m 3017.1,5288.2 c 2.97,-4.47 4.28,-11.13 3.82,-19.9 -0.5,-9.17 -2.31,-19.55 -5.53,-31.14 -3.21,-11.56 -6.93,-21.31 -11.15,-29.23 -3.83,-6.91 -8,-12.11 -12.52,-15.57 -4.47,-3.45 -9.3,-5.16 -14.52,-5.13 -6.59,0.04 -11.56,2.23 -14.93,6.63 -3.38,4.34 -4.83,10.6 -4.38,18.72 0.16,3.57 0.8,7.89 1.87,12.92 1.05,5.05 2.81,11.61 5.22,19.71 2.25,7.63 4.02,13.42 5.48,17.33 1.36,3.95 2.76,7.32 4.22,10.13 3.57,7.27 7.84,12.79 12.66,16.62 4.93,3.84 10.06,5.73 15.49,5.7 6.48,-0.03 11.25,-2.28 14.27,-6.79 z"
           id="path108"
           inkscape:connector-curvature="0"
           style="fill:none;stroke:#007300" /></g><g
         transform="scale(0.1,0.1)"
         id="g110"
         style="fill-opacity:0;stroke-width:2.5"><path
           d="m 2946.73,5179.51 3.72,13.37 c 2.22,-5.86 5.48,-10.11 9.8,-12.82 4.33,-2.68 10,-4.08 16.95,-4.09 6.83,-0.05 13.21,1.67 19.15,5.14 5.97,3.5 11.31,8.7 16.03,15.64 5.88,8.29 10.9,18.97 15.08,32.02 4.17,13.07 6.54,25.68 7.19,37.92 0.7,12.99 -1.42,22.87 -6.29,29.61 -4.88,6.76 -12.41,10.2 -22.57,10.25 -5.27,0.03 -10.25,-1.1 -14.87,-3.37 -4.63,-2.26 -9.06,-5.7 -13.17,-10.33 l 15.28,55.45 -13.88,0.12 -46.38,-168.84 13.96,-0.07 z"
           id="path112"
           inkscape:connector-curvature="0"
           style="fill:none;stroke:#007300" /></g><g
         transform="scale(0.1,0.1)"
         id="g114"
         style="stroke-width:2.5;stroke-opacity:0"><path
           d="m 3082.95,5326.41 5.83,21.36 16.74,-0.1 -5.83,-21.37 -16.74,0.11 z m -37.4,-147.45 33.88,124.35 13.87,-0.08 -33.83,-124.37 -13.92,0.1"
           id="path116"
           inkscape:connector-curvature="0"
           style="fill:#007300;fill-rule:nonzero" /></g><g
         transform="scale(0.1,0.1)"
         id="g118"
         style="fill-opacity:0;stroke-width:2.5"><path
           d="m 3082.95,5326.41 5.83,21.36 16.74,-0.1 -5.83,-21.37 -16.74,0.11 z"
           id="path120"
           inkscape:connector-curvature="0"
           style="fill:none;stroke:#007300" /></g><g
         transform="scale(0.1,0.1)"
         id="g122"
         style="fill-opacity:0;stroke-width:2.5"><path
           d="m 3045.55,5178.96 33.88,124.35 13.87,-0.08 -33.83,-124.37 -13.92,0.1 z"
           id="path124"
           inkscape:connector-curvature="0"
           style="fill:none;stroke:#007300" /></g><g
         transform="scale(0.1,0.1)"
         id="g126"
         style="stroke-width:2.5;stroke-opacity:0"><path
           d="m 3100.09,5178.63 46.09,168.81 13.87,-0.08 -45.99,-168.81 -13.97,0.08"
           id="path128"
           inkscape:connector-curvature="0"
           style="fill:#007300;fill-rule:nonzero" /></g><g
         transform="scale(0.1,0.1)"
         id="g130"
         style="fill-opacity:0;stroke-width:2.5"><path
           d="m 3100.09,5178.63 46.09,168.81 13.87,-0.08 -45.99,-168.81 -13.97,0.08 z"
           id="path132"
           inkscape:connector-curvature="0"
           style="fill:none;stroke:#007300" /></g><g
         transform="scale(0.1,0.1)"
         id="g134"
         style="stroke-width:2.5;stroke-opacity:0"><path
           d="m 3196.69,5325.75 5.84,21.36 16.74,-0.07 -5.84,-21.36 -16.74,0.07 z m -37.39,-147.45 33.88,124.38 13.87,-0.1 -33.78,-124.36 -13.97,0.08"
           id="path136"
           inkscape:connector-curvature="0"
           style="fill:#007300;fill-rule:nonzero" /></g><g
         transform="scale(0.1,0.1)"
         id="g138"
         style="fill-opacity:0;stroke-width:2.5"><path
           d="m 3196.69,5325.75 5.84,21.36 16.74,-0.07 -5.84,-21.36 -16.74,0.07 z"
           id="path140"
           inkscape:connector-curvature="0"
           style="fill:none;stroke:#007300" /></g><g
         transform="scale(0.1,0.1)"
         id="g142"
         style="fill-opacity:0;stroke-width:2.5"><path
           d="m 3159.3,5178.3 33.88,124.38 13.87,-0.1 -33.78,-124.36 -13.97,0.08 z"
           id="path144"
           inkscape:connector-curvature="0"
           style="fill:none;stroke:#007300" /></g><g
         transform="scale(0.1,0.1)"
         id="g146"
         style="stroke-width:2.5;stroke-opacity:0"><path
           d="m 3249.77,5292.48 -10.85,0.05 2.61,9.85 11.16,-0.05 9.85,34.6 13.57,-0.07 -9.75,-34.59 17.39,-0.12 -2.56,-9.85 -17.55,0.1 -21.56,-76.13 c -1.76,-6.15 -3.02,-10.75 -3.66,-13.77 -0.76,-3.01 -1.12,-5.35 -1.21,-7.03 -0.15,-3.05 0.5,-5.26 2.01,-6.58 1.5,-1.36 4.02,-2.04 7.64,-2.06 1.35,0 2.52,0.02 3.46,0.1 0.96,0.07 1.91,0.17 2.82,0.34 l -2.82,-10.02 c -2.06,-0.28 -3.91,-0.5 -5.62,-0.63 -1.71,-0.12 -3.12,-0.2 -4.22,-0.17 -5.64,0.01 -10.01,1.45 -13.08,4.31 -3.01,2.85 -4.42,6.82 -4.17,11.97 0.1,2.31 0.61,5.23 1.41,8.79 0.81,3.55 2.01,8.15 3.62,13.8 l 21.51,77.16"
           id="path148"
           inkscape:connector-curvature="0"
           style="fill:#007300;fill-rule:nonzero" /></g><g
         transform="scale(0.1,0.1)"
         id="g150"
         style="fill-opacity:0;stroke-width:2.5"><path
           d="m 3249.77,5292.48 -10.85,0.05 2.61,9.85 11.16,-0.05 9.85,34.6 13.57,-0.07 -9.75,-34.59 17.39,-0.12 -2.56,-9.85 -17.55,0.1 -21.56,-76.13 c -1.76,-6.15 -3.02,-10.75 -3.66,-13.77 -0.76,-3.01 -1.12,-5.35 -1.21,-7.03 -0.15,-3.05 0.5,-5.26 2.01,-6.58 1.5,-1.36 4.02,-2.04 7.64,-2.06 1.35,0 2.52,0.02 3.46,0.1 0.96,0.07 1.91,0.17 2.82,0.34 l -2.82,-10.02 c -2.06,-0.28 -3.91,-0.5 -5.62,-0.63 -1.71,-0.12 -3.12,-0.2 -4.22,-0.17 -5.64,0.01 -10.01,1.45 -13.08,4.31 -3.01,2.85 -4.42,6.82 -4.17,11.97 0.1,2.31 0.61,5.23 1.41,8.79 0.81,3.55 2.01,8.15 3.62,13.8 l 21.51,77.16 z"
           id="path152"
           inkscape:connector-curvature="0"
           style="fill:none;stroke:#007300" /></g><g
         transform="scale(0.1,0.1)"
         id="g154"
         style="stroke-width:2.5;stroke-opacity:0"><path
           d="m 3263.64,5135.53 3.18,10.51 c 0.59,0 1.5,-0.06 2.5,-0.13 2.47,-0.23 4.03,-0.35 4.73,-0.35 6.09,-0.05 11.16,1.8 15.13,5.6 3.97,3.79 9.2,12.51 15.68,26.22 l 2.16,124.65 13.12,-0.08 -1.41,-99.45 53.39,99.15 14.52,-0.08 -64.84,-120.93 -1.2,-2.26 c -15.74,-29.33 -30.92,-43.94 -45.44,-43.86 -1.66,0.03 -4.63,0.28 -8.9,0.75 -1.05,0.11 -1.96,0.18 -2.62,0.26"
           id="path156"
           inkscape:connector-curvature="0"
           style="fill:#007300;fill-rule:nonzero" /></g><g
         transform="scale(0.1,0.1)"
         id="g158"
         style="fill-opacity:0;stroke-width:2.5"><path
           d="m 3263.64,5135.53 3.18,10.51 c 0.59,0 1.5,-0.06 2.5,-0.13 2.47,-0.23 4.03,-0.35 4.73,-0.35 6.09,-0.05 11.16,1.8 15.13,5.6 3.97,3.79 9.2,12.51 15.68,26.22 l 2.16,124.65 13.12,-0.08 -1.41,-99.45 53.39,99.15 14.52,-0.08 -64.84,-120.93 -1.2,-2.26 c -15.74,-29.33 -30.92,-43.94 -45.44,-43.86 -1.66,0.03 -4.63,0.28 -8.9,0.75 -1.05,0.11 -1.96,0.18 -2.62,0.26 z"
           id="path160"
           inkscape:connector-curvature="0"
           style="fill:none;stroke:#007300" /></g><g
         transform="scale(0.1,0.1)"
         id="g162"
         style="stroke-width:2.5;stroke-opacity:0"><path
           d="m 3573.07,5229.8 c -5.23,-18.82 -12.86,-33.02 -23.02,-42.62 -10.11,-9.58 -22.42,-14.33 -36.94,-14.26 -13.93,0.08 -24.38,4.23 -31.27,12.44 -6.89,8.19 -9.95,20.11 -9.14,35.69 0.3,6.11 1.25,13.2 2.76,21.22 1.55,8.06 3.61,16.78 6.28,26.18 2.71,9.65 5.64,18.5 8.75,26.51 3.06,8 6.23,14.83 9.44,20.46 6.49,11.56 13.83,20.06 22.02,25.44 8.15,5.37 17.69,8.03 28.66,7.96 14.02,-0.07 24.42,-4.17 31.25,-12.24 6.84,-8.09 9.86,-19.77 9.05,-35.08 -0.1,-2.01 -0.2,-3.47 -0.3,-4.43 -0.05,-0.94 -0.15,-1.8 -0.25,-2.58 l -14.68,0.1 c 0.1,0.68 0.21,1.48 0.26,2.38 0.1,0.94 0.19,2.19 0.24,3.78 0.66,11.66 -1.41,20.4 -6.07,26.26 -4.68,5.85 -11.92,8.82 -21.72,8.87 -7.84,0.05 -14.63,-2.13 -20.3,-6.53 -5.69,-4.4 -11.01,-11.56 -16.09,-21.47 -2.57,-5.07 -5.12,-11.23 -7.74,-18.39 -2.62,-7.17 -5.18,-15.03 -7.69,-23.58 -2.77,-9.62 -4.83,-18.2 -6.29,-25.76 -1.5,-7.54 -2.36,-14.07 -2.66,-19.57 -0.6,-11.47 1.31,-20.06 5.78,-25.77 4.42,-5.73 11.46,-8.59 21.11,-8.64 10,-0.08 18.6,3.44 25.69,10.5 7.14,7.04 13.17,18.13 18.19,33.21 l 14.68,-0.08"
           id="path164"
           inkscape:connector-curvature="0"
           style="fill:#007300;fill-rule:nonzero" /></g><g
         transform="scale(0.1,0.1)"
         id="g166"
         style="fill-opacity:0;stroke-width:2.5"><path
           d="m 3573.07,5229.8 c -5.23,-18.82 -12.86,-33.02 -23.02,-42.62 -10.11,-9.58 -22.42,-14.33 -36.94,-14.26 -13.93,0.08 -24.38,4.23 -31.27,12.44 -6.89,8.19 -9.95,20.11 -9.14,35.69 0.3,6.11 1.25,13.2 2.76,21.22 1.55,8.06 3.61,16.78 6.28,26.18 2.71,9.65 5.64,18.5 8.75,26.51 3.06,8 6.23,14.83 9.44,20.46 6.49,11.56 13.83,20.06 22.02,25.44 8.15,5.37 17.69,8.03 28.66,7.96 14.02,-0.07 24.42,-4.17 31.25,-12.24 6.84,-8.09 9.86,-19.77 9.05,-35.08 -0.1,-2.01 -0.2,-3.47 -0.3,-4.43 -0.05,-0.94 -0.15,-1.8 -0.25,-2.58 l -14.68,0.1 c 0.1,0.68 0.21,1.48 0.26,2.38 0.1,0.94 0.19,2.19 0.24,3.78 0.66,11.66 -1.41,20.4 -6.07,26.26 -4.68,5.85 -11.92,8.82 -21.72,8.87 -7.84,0.05 -14.63,-2.13 -20.3,-6.53 -5.69,-4.4 -11.01,-11.56 -16.09,-21.47 -2.57,-5.07 -5.12,-11.23 -7.74,-18.39 -2.62,-7.17 -5.18,-15.03 -7.69,-23.58 -2.77,-9.62 -4.83,-18.2 -6.29,-25.76 -1.5,-7.54 -2.36,-14.07 -2.66,-19.57 -0.6,-11.47 1.31,-20.06 5.78,-25.77 4.42,-5.73 11.46,-8.59 21.11,-8.64 10,-0.08 18.6,3.44 25.69,10.5 7.14,7.04 13.17,18.13 18.19,33.21 l 14.68,-0.08 z"
           id="path168"
           inkscape:connector-curvature="0"
           style="fill:none;stroke:#007300" /></g><g
         transform="scale(0.1,0.1)"
         id="g170"
         style="stroke-width:2.5;stroke-opacity:0"><path
           d="m 3672.14,5285.11 c 3.56,-4.65 5.13,-11.36 4.68,-20.15 -0.46,-9.65 -2.47,-20.71 -5.89,-33.15 -3.36,-12.47 -7.13,-22.62 -11.31,-30.49 -3.21,-5.88 -6.93,-10.27 -11.15,-13.19 -4.17,-2.94 -8.85,-4.37 -13.98,-4.35 -7.09,0.05 -12.41,2.39 -15.98,7.04 -3.52,4.65 -5.08,11.36 -4.62,20.08 0.54,10.08 2.46,21.31 5.83,33.6 3.37,12.29 7.14,22.27 11.3,29.88 3.27,6.03 6.94,10.51 11.06,13.45 4.07,2.91 8.7,4.37 13.83,4.32 7.23,-0.02 12.66,-2.36 16.23,-7.04 z m -64.84,-102.36 c 5.68,-6.77 14.27,-10.15 25.93,-10.23 7.84,-0.05 14.93,1.89 21.26,5.76 6.34,3.84 11.82,9.65 16.55,17.44 5.01,8.22 9.44,18.8 13.27,31.69 3.76,12.97 5.97,25.01 6.58,36.16 0.65,12.75 -1.91,22.57 -7.7,29.46 -5.78,6.86 -14.47,10.33 -25.98,10.4 -7.78,0.03 -14.83,-1.88 -21.1,-5.72 -6.25,-3.88 -11.72,-9.71 -16.5,-17.44 -4.88,-8.02 -9.19,-18.58 -13.11,-31.7 -3.82,-13.12 -6.04,-25.16 -6.64,-36.09 -0.65,-13.04 1.81,-22.94 7.44,-29.73"
           id="path172"
           inkscape:connector-curvature="0"
           style="fill:#007300;fill-rule:nonzero" /></g><g
         transform="scale(0.1,0.1)"
         id="g174"
         style="fill-opacity:0;stroke-width:2.5"><path
           d="m 3672.14,5285.11 c 3.56,-4.65 5.13,-11.36 4.68,-20.15 -0.46,-9.65 -2.47,-20.71 -5.89,-33.15 -3.36,-12.47 -7.13,-22.62 -11.31,-30.49 -3.21,-5.88 -6.93,-10.27 -11.15,-13.19 -4.17,-2.94 -8.85,-4.37 -13.98,-4.35 -7.09,0.05 -12.41,2.39 -15.98,7.04 -3.52,4.65 -5.08,11.36 -4.62,20.08 0.54,10.08 2.46,21.31 5.83,33.6 3.37,12.29 7.14,22.27 11.3,29.88 3.27,6.03 6.94,10.51 11.06,13.45 4.07,2.91 8.7,4.37 13.83,4.32 7.23,-0.02 12.66,-2.36 16.23,-7.04 z"
           id="path176"
           inkscape:connector-curvature="0"
           style="fill:none;stroke:#007300" /></g><g
         transform="scale(0.1,0.1)"
         id="g178"
         style="fill-opacity:0;stroke-width:2.5"><path
           d="m 3607.3,5182.75 c 5.68,-6.77 14.27,-10.15 25.93,-10.23 7.84,-0.05 14.93,1.89 21.26,5.76 6.34,3.84 11.82,9.65 16.55,17.44 5.01,8.22 9.44,18.8 13.27,31.69 3.76,12.97 5.97,25.01 6.58,36.16 0.65,12.75 -1.91,22.57 -7.7,29.46 -5.78,6.86 -14.47,10.33 -25.98,10.4 -7.78,0.03 -14.83,-1.88 -21.1,-5.72 -6.25,-3.88 -11.72,-9.71 -16.5,-17.44 -4.88,-8.02 -9.19,-18.58 -13.11,-31.7 -3.82,-13.12 -6.04,-25.16 -6.64,-36.09 -0.65,-13.04 1.81,-22.94 7.44,-29.73 z"
           id="path180"
           inkscape:connector-curvature="0"
           style="fill:none;stroke:#007300" /></g><g
         transform="scale(0.1,0.1)"
         id="g182"
         style="stroke-width:2.5;stroke-opacity:0"><path
           d="m 3701.85,5175.23 33.92,124.36 13.18,-0.05 -3.58,-13.2 c 4.93,5.13 10.11,8.95 15.59,11.52 5.43,2.53 11.31,3.77 17.63,3.77 6.34,-0.06 11.62,-1.44 15.8,-4.15 4.16,-2.71 7.18,-6.79 9.09,-12.27 5.52,5.66 11.06,9.75 16.53,12.29 5.59,2.57 11.42,3.8 17.74,3.77 7.7,-0.02 13.73,-2.11 18.1,-6.13 4.42,-4.07 6.38,-9.55 6.04,-16.39 -0.1,-2.28 -0.36,-4.55 -0.71,-6.81 -0.35,-2.23 -0.8,-4.49 -1.36,-6.78 l -24.83,-90.68 -14.02,0.1 25.04,91.46 c 0.45,1.6 0.8,3.24 1.1,4.87 0.25,1.64 0.45,3.17 0.5,4.53 0.25,4.83 -0.85,8.49 -3.32,11.01 -2.47,2.56 -6.13,3.84 -10.9,3.87 -8.45,0.02 -15.84,-3.1 -22.26,-9.38 -6.49,-6.33 -11.27,-15.26 -14.39,-26.76 l -21.81,-79.38 -12.82,0.11 24.74,91.48 c 0.45,1.58 0.85,3.22 1.15,4.85 0.25,1.66 0.4,3.17 0.5,4.52 0.25,4.83 -0.86,8.5 -3.31,11.04 -2.48,2.54 -6.14,3.82 -10.91,3.84 -8.45,0.05 -15.84,-3.09 -22.33,-9.4 -6.42,-6.28 -11.2,-15.23 -14.31,-26.74 l -21.87,-79.33 -13.92,0.06"
           id="path184"
           inkscape:connector-curvature="0"
           style="fill:#007300;fill-rule:nonzero" /></g><g
         transform="scale(0.1,0.1)"
         id="g186"
         style="fill-opacity:0;stroke-width:2.5"><path
           d="m 3701.85,5175.23 33.92,124.36 13.18,-0.05 -3.58,-13.2 c 4.93,5.13 10.11,8.95 15.59,11.52 5.43,2.53 11.31,3.77 17.63,3.77 6.34,-0.06 11.62,-1.44 15.8,-4.15 4.16,-2.71 7.18,-6.79 9.09,-12.27 5.52,5.66 11.06,9.75 16.53,12.29 5.59,2.57 11.42,3.8 17.74,3.77 7.7,-0.02 13.73,-2.11 18.1,-6.13 4.42,-4.07 6.38,-9.55 6.04,-16.39 -0.1,-2.28 -0.36,-4.55 -0.71,-6.81 -0.35,-2.23 -0.8,-4.49 -1.36,-6.78 l -24.83,-90.68 -14.02,0.1 25.04,91.46 c 0.45,1.6 0.8,3.24 1.1,4.87 0.25,1.64 0.45,3.17 0.5,4.53 0.25,4.83 -0.85,8.49 -3.32,11.01 -2.47,2.56 -6.13,3.84 -10.9,3.87 -8.45,0.02 -15.84,-3.1 -22.26,-9.38 -6.49,-6.33 -11.27,-15.26 -14.39,-26.76 l -21.81,-79.38 -12.82,0.11 24.74,91.48 c 0.45,1.58 0.85,3.22 1.15,4.85 0.25,1.66 0.4,3.17 0.5,4.52 0.25,4.83 -0.86,8.5 -3.31,11.04 -2.48,2.54 -6.14,3.82 -10.91,3.84 -8.45,0.05 -15.84,-3.09 -22.33,-9.4 -6.42,-6.28 -11.2,-15.23 -14.31,-26.74 l -21.87,-79.33 -13.92,0.06 z"
           id="path188"
           inkscape:connector-curvature="0"
           style="fill:none;stroke:#007300" /></g><g
         transform="scale(0.1,0.1)"
         id="g190"
         style="stroke-width:2.5;stroke-opacity:0"><path
           d="m 3959.7,5283.43 c 2.97,-4.5 4.28,-11.16 3.82,-19.95 -0.5,-9.2 -2.37,-19.63 -5.58,-31.27 -3.22,-11.63 -6.93,-21.39 -11.21,-29.25 -3.82,-6.96 -7.99,-12.17 -12.52,-15.6 -4.52,-3.48 -9.4,-5.18 -14.62,-5.16 -6.59,0.03 -11.56,2.23 -14.93,6.63 -3.37,4.37 -4.87,10.66 -4.43,18.78 0.21,3.56 0.81,7.91 1.87,12.97 1.05,5.05 2.86,11.63 5.28,19.72 2.2,7.67 4.07,13.47 5.42,17.42 1.41,3.94 2.86,7.32 4.32,10.13 3.57,7.26 7.84,12.84 12.72,16.66 4.88,3.87 10.05,5.76 15.48,5.73 6.54,-0.03 11.31,-2.29 14.38,-6.81 z m -82.13,-152.3 15.57,56.6 c 1.97,-5.66 5.24,-9.83 9.61,-12.59 4.42,-2.8 10.05,-4.2 16.98,-4.25 6.79,0 13.18,1.74 19.16,5.25 5.99,3.55 11.31,8.74 16.03,15.69 5.93,8.31 10.91,18.99 15.08,32.06 4.17,13.07 6.58,25.74 7.23,37.98 0.71,13.36 -1.45,23.29 -6.48,29.8 -5.02,6.49 -13.06,9.78 -24.17,9.83 -4.72,0.02 -9.35,-1.18 -13.87,-3.57 -4.48,-2.41 -8.95,-6.05 -13.42,-10.98 l 3.21,11.59 -12.97,0.09 -45.79,-167.4 13.83,-0.1"
           id="path192"
           inkscape:connector-curvature="0"
           style="fill:#007300;fill-rule:nonzero" /></g><g
         transform="scale(0.1,0.1)"
         id="g194"
         style="fill-opacity:0;stroke-width:2.5"><path
           d="m 3959.7,5283.43 c 2.97,-4.5 4.28,-11.16 3.82,-19.95 -0.5,-9.2 -2.37,-19.63 -5.58,-31.27 -3.22,-11.63 -6.93,-21.39 -11.21,-29.25 -3.82,-6.96 -7.99,-12.17 -12.52,-15.6 -4.52,-3.48 -9.4,-5.18 -14.62,-5.16 -6.59,0.03 -11.56,2.23 -14.93,6.63 -3.37,4.37 -4.87,10.66 -4.43,18.78 0.21,3.56 0.81,7.91 1.87,12.97 1.05,5.05 2.86,11.63 5.28,19.72 2.2,7.67 4.07,13.47 5.42,17.42 1.41,3.94 2.86,7.32 4.32,10.13 3.57,7.26 7.84,12.84 12.72,16.66 4.88,3.87 10.05,5.76 15.48,5.73 6.54,-0.03 11.31,-2.29 14.38,-6.81 z"
           id="path196"
           inkscape:connector-curvature="0"
           style="fill:none;stroke:#007300" /></g><g
         transform="scale(0.1,0.1)"
         id="g198"
         style="fill-opacity:0;stroke-width:2.5"><path
           d="m 3877.57,5131.13 15.57,56.6 c 1.97,-5.66 5.24,-9.83 9.61,-12.59 4.42,-2.8 10.05,-4.2 16.98,-4.25 6.79,0 13.18,1.74 19.16,5.25 5.99,3.55 11.31,8.74 16.03,15.69 5.93,8.31 10.91,18.99 15.08,32.06 4.17,13.07 6.58,25.74 7.23,37.98 0.71,13.36 -1.45,23.29 -6.48,29.8 -5.02,6.49 -13.06,9.78 -24.17,9.83 -4.72,0.02 -9.35,-1.18 -13.87,-3.57 -4.48,-2.41 -8.95,-6.05 -13.42,-10.98 l 3.21,11.59 -12.97,0.09 -45.79,-167.4 13.83,-0.1 z"
           id="path200"
           inkscape:connector-curvature="0"
           style="fill:none;stroke:#007300" /></g><g
         transform="scale(0.1,0.1)"
         id="g202"
         style="stroke-width:2.5;stroke-opacity:0"><path
           d="m 4042.88,5195.17 c -5.72,-8.55 -12.86,-12.77 -21.45,-12.72 -5.43,0.02 -9.66,1.76 -12.73,5.18 -3.11,3.42 -4.47,7.97 -4.17,13.69 0.75,14.2 18.15,26.24 52.23,36.02 l 1.05,0.22 c -4.26,-19.75 -9.25,-33.88 -14.93,-42.39 z m -7.99,89.19 c 3.77,3.37 8.7,5.05 14.83,5.03 5.68,-0.05 9.9,-1.51 12.82,-4.35 2.81,-2.84 4.12,-7.01 3.87,-12.44 -0.4,-7.44 -2.32,-13.22 -5.78,-17.35 -3.47,-4.12 -11.27,-8.09 -23.42,-11.86 -18.4,-5.68 -30.62,-11.66 -36.7,-17.89 -5.98,-6.21 -9.3,-14.68 -9.9,-25.36 -0.45,-8.71 1.81,-15.8 6.83,-21.23 5.03,-5.46 11.77,-8.23 20.27,-8.27 5.07,-0.02 9.79,0.9 14.22,2.79 4.42,1.88 8.89,4.87 13.41,9.02 0.56,-3.77 1.96,-6.53 4.18,-8.32 2.16,-1.75 5.37,-2.67 9.44,-2.68 1.27,0 2.62,0.07 4.08,0.22 1.46,0.13 3.07,0.37 4.73,0.67 l 2.8,10.06 c -0.34,-0.08 -0.75,-0.13 -1.19,-0.15 -0.4,-0.05 -1.06,-0.05 -1.87,-0.05 -2.65,0 -4.78,0.78 -6.23,2.26 -1.4,1.51 -2.06,3.44 -1.96,5.93 0.04,1.36 0.2,2.49 0.35,3.42 0.21,0.91 0.41,1.83 0.65,2.76 l 16.24,60.25 c 1.36,4.92 2.37,9.04 3.02,12.41 0.7,3.37 1.1,6.28 1.2,8.72 0.31,6.33 -2.15,11.71 -7.54,16.09 -5.38,4.34 -12.22,6.56 -20.6,6.6 -10.61,0.05 -19.36,-2.71 -26.34,-8.34 -6.99,-5.58 -11.96,-13.8 -14.88,-24.7 l 13.87,-0.08 c 2.61,7.87 5.84,13.47 9.6,16.84"
           id="path204"
           inkscape:connector-curvature="0"
           style="fill:#007300;fill-rule:nonzero" /></g><g
         transform="scale(0.1,0.1)"
         id="g206"
         style="fill-opacity:0;stroke-width:2.5"><path
           d="m 4042.88,5195.17 c -5.72,-8.55 -12.86,-12.77 -21.45,-12.72 -5.43,0.02 -9.66,1.76 -12.73,5.18 -3.11,3.42 -4.47,7.97 -4.17,13.69 0.75,14.2 18.15,26.24 52.23,36.02 l 1.05,0.22 c -4.26,-19.75 -9.25,-33.88 -14.93,-42.39 z"
           id="path208"
           inkscape:connector-curvature="0"
           style="fill:none;stroke:#007300" /></g><g
         transform="scale(0.1,0.1)"
         id="g210"
         style="fill-opacity:0;stroke-width:2.5"><path
           d="m 4034.89,5284.36 c 3.77,3.37 8.7,5.05 14.83,5.03 5.68,-0.05 9.9,-1.51 12.82,-4.35 2.81,-2.84 4.12,-7.01 3.87,-12.44 -0.4,-7.44 -2.32,-13.22 -5.78,-17.35 -3.47,-4.12 -11.27,-8.09 -23.42,-11.86 -18.4,-5.68 -30.62,-11.66 -36.7,-17.89 -5.98,-6.21 -9.3,-14.68 -9.9,-25.36 -0.45,-8.71 1.81,-15.8 6.83,-21.23 5.03,-5.46 11.77,-8.23 20.27,-8.27 5.07,-0.02 9.79,0.9 14.22,2.79 4.42,1.88 8.89,4.87 13.41,9.02 0.56,-3.77 1.96,-6.53 4.18,-8.32 2.16,-1.75 5.37,-2.67 9.44,-2.68 1.27,0 2.62,0.07 4.08,0.22 1.46,0.13 3.07,0.37 4.73,0.67 l 2.8,10.06 c -0.34,-0.08 -0.75,-0.13 -1.19,-0.15 -0.4,-0.05 -1.06,-0.05 -1.87,-0.05 -2.65,0 -4.78,0.78 -6.23,2.26 -1.4,1.51 -2.06,3.44 -1.96,5.93 0.04,1.36 0.2,2.49 0.35,3.42 0.21,0.91 0.41,1.83 0.65,2.76 l 16.24,60.25 c 1.36,4.92 2.37,9.04 3.02,12.41 0.7,3.37 1.1,6.28 1.2,8.72 0.31,6.33 -2.15,11.71 -7.54,16.09 -5.38,4.34 -12.22,6.56 -20.6,6.6 -10.61,0.05 -19.36,-2.71 -26.34,-8.34 -6.99,-5.58 -11.96,-13.8 -14.88,-24.7 l 13.87,-0.08 c 2.61,7.87 5.84,13.47 9.6,16.84 z"
           id="path212"
           inkscape:connector-curvature="0"
           style="fill:none;stroke:#007300" /></g><g
         transform="scale(0.1,0.1)"
         id="g214"
         style="stroke-width:2.5;stroke-opacity:0"><path
           d="m 4094.1,5173.03 33.88,124.37 13.17,-0.1 -3.62,-13.19 c 5.13,5.2 10.35,9.07 15.78,11.56 5.38,2.54 11.21,3.77 17.44,3.74 7.75,-0.07 13.78,-2.11 18.21,-6.15 4.31,-4.1 6.32,-9.53 5.97,-16.39 -0.09,-2.29 -0.35,-4.55 -0.7,-6.79 -0.35,-2.23 -0.86,-4.52 -1.5,-6.78 l -24.69,-90.67 -13.77,0.07 24.78,91.48 c 0.45,1.58 0.81,3.21 1.06,4.85 0.29,1.66 0.5,3.14 0.54,4.52 0.26,4.83 -0.85,8.5 -3.31,11.06 -2.46,2.52 -6.08,3.79 -10.9,3.82 -8.3,0.08 -15.69,-3.12 -22.22,-9.5 -6.53,-6.38 -11.31,-15.25 -14.33,-26.64 l -21.82,-79.31 -13.97,0.05"
           id="path216"
           inkscape:connector-curvature="0"
           style="fill:#007300;fill-rule:nonzero" /></g><g
         transform="scale(0.1,0.1)"
         id="g218"
         style="fill-opacity:0;stroke-width:2.5"><path
           d="m 4094.1,5173.03 33.88,124.37 13.17,-0.1 -3.62,-13.19 c 5.13,5.2 10.35,9.07 15.78,11.56 5.38,2.54 11.21,3.77 17.44,3.74 7.75,-0.07 13.78,-2.11 18.21,-6.15 4.31,-4.1 6.32,-9.53 5.97,-16.39 -0.09,-2.29 -0.35,-4.55 -0.7,-6.79 -0.35,-2.23 -0.86,-4.52 -1.5,-6.78 l -24.69,-90.67 -13.77,0.07 24.78,91.48 c 0.45,1.58 0.81,3.21 1.06,4.85 0.29,1.66 0.5,3.14 0.54,4.52 0.26,4.83 -0.85,8.5 -3.31,11.06 -2.46,2.52 -6.08,3.79 -10.9,3.82 -8.3,0.08 -15.69,-3.12 -22.22,-9.5 -6.53,-6.38 -11.31,-15.25 -14.33,-26.64 l -21.82,-79.31 -13.97,0.05 z"
           id="path220"
           inkscape:connector-curvature="0"
           style="fill:none;stroke:#007300" /></g><g
         transform="scale(0.1,0.1)"
         id="g222"
         style="stroke-width:2.5;stroke-opacity:0"><path
           d="m 4181.71,5130.35 3.17,10.51 c 0.6,0 1.46,-0.05 2.51,-0.13 2.47,-0.25 4.03,-0.38 4.68,-0.38 6.13,-0.02 11.15,1.84 15.18,5.63 3.97,3.79 9.2,12.52 15.63,26.22 l 2.16,124.65 13.17,-0.1 -1.41,-99.43 53.33,99.16 14.58,-0.09 -64.9,-120.93 -1.15,-2.28 c -15.78,-29.31 -30.86,-43.91 -45.44,-43.83 -1.66,0.03 -4.61,0.27 -8.9,0.73 -1.05,0.1 -1.96,0.19 -2.61,0.27"
           id="path224"
           inkscape:connector-curvature="0"
           style="fill:#007300;fill-rule:nonzero" /></g><g
         transform="scale(0.1,0.1)"
         id="g226"
         style="fill-opacity:0;stroke-width:2.5"><path
           d="m 4181.71,5130.35 3.17,10.51 c 0.6,0 1.46,-0.05 2.51,-0.13 2.47,-0.25 4.03,-0.38 4.68,-0.38 6.13,-0.02 11.15,1.84 15.18,5.63 3.97,3.79 9.2,12.52 15.63,26.22 l 2.16,124.65 13.17,-0.1 -1.41,-99.43 53.33,99.16 14.58,-0.09 -64.9,-120.93 -1.15,-2.28 c -15.78,-29.31 -30.86,-43.91 -45.44,-43.83 -1.66,0.03 -4.61,0.27 -8.9,0.73 -1.05,0.1 -1.96,0.19 -2.61,0.27 z"
           id="path228"
           inkscape:connector-curvature="0"
           style="fill:none;stroke:#007300" /></g><g
         transform="scale(0.1,0.1)"
         id="g230"
         style="stroke-width:2.5;stroke-opacity:0"><path
           d="m 1899.45,5078.41 2424.1,0 0,19.074 -2424.1,0 z m -350.04,-153.46 -32.71,21.14 -365.82,-191.06 0,-11.46 c 0,-28.07 22.79,-50.86 50.91,-50.86 l 286.2,0 61.42,232.24"
           id="path232"
           inkscape:connector-curvature="0"
           style="fill:#007300;fill-rule:nonzero" /></g><g
         transform="scale(0.1,0.1)"
         id="g234"
         style="stroke-width:2.5;stroke-opacity:0"><path
           d="m 1765.35,5358.1 -19.98,0 -161.68,-349.54 99.87,-150.61 c 2.3,-6.42 -1.07,-10.51 -1.07,-10.51 0,0 -3.37,-4.07 -11.11,-1.46 l -34.6,22.45 33.7,-175.72 94.87,0 c 28.15,0 50.91,22.79 50.91,50.86 l 0,563.63 c 0,28.1 -22.76,50.9 -50.91,50.9 m -533.53,0 -30.03,0 c -28.12,0 -50.91,-22.8 -50.91,-50.9 l 0,-30.05 80.94,80.95"
           id="path236"
           inkscape:connector-curvature="0"
           style="fill:#007300;fill-rule:nonzero" /></g><g
         transform="scale(0.1,0.1)"
         id="g238"
         style="stroke-width:2.5;stroke-opacity:0"><path
           d="m 1328.75,5358.1 -57.82,0 -120.05,-120.06 0,-57.83 177.87,177.89"
           id="path240"
           inkscape:connector-curvature="0"
           style="fill:#007300;fill-rule:nonzero" /></g><g
         transform="scale(0.1,0.1)"
         id="g242"
         style="stroke-width:2.5;stroke-opacity:0"><path
           d="m 1425.72,5358.1 -57.86,0 -216.98,-216.97 0,-57.83 274.84,274.8"
           id="path244"
           inkscape:connector-curvature="0"
           style="fill:#007300;fill-rule:nonzero" /></g><g
         transform="scale(0.1,0.1)"
         id="g246"
         style="stroke-width:2.5;stroke-opacity:0"><path
           d="m 1522.65,5358.1 -57.83,0 -313.94,-313.93 0,-57.85 371.77,371.78"
           id="path248"
           inkscape:connector-curvature="0"
           style="fill:#007300;fill-rule:nonzero" /></g><g
         transform="scale(0.1,0.1)"
         id="g250"
         style="stroke-width:2.5;stroke-opacity:0"><path
           d="m 1658.69,5358.1 -507.81,-507.82 0,-56.49 564.31,564.31 -56.5,0"
           id="path252"
           inkscape:connector-curvature="0"
           style="fill:#007300;fill-rule:nonzero" /></g><g
         transform="scale(0.1,0.1)"
         id="g254"
         style="stroke-width:2.5;stroke-opacity:0"><path
           d="m 1619.61,5358.1 -57.85,0 -410.88,-410.87 0,-57.87 468.73,468.74 m 332.35,-531.67 19.46,123.1 19.68,-123.1 -39.14,0 z m 60.01,-130.63 57.89,0 -67.38,342.5 -60.8,0 -66.82,-342.5 56.44,0 8.9,56.25 62.73,0 9.04,-56.25 m 76,342.5 51.41,0 67.34,-189.71 0,189.71 51.88,0 0,-342.5 -51.88,0 -66.87,188.39 0,-188.39 -51.88,0 0,342.5 m 195.03,0 168.13,0 0,-84.37 -56.25,0 0,-258.13 -55.63,0 0,258.13 -56.25,0 0,84.37 m 192.96,0 148.12,0 0,-73.12 -92.5,0 0,-54.38 85.63,0 0,-70 -85.63,0 0,-67.5 95,0 0,-77.5 -150.62,0 0,342.5 m 181.08,0 51.41,0 67.34,-189.71 0,189.71 51.88,0 0,-342.5 -51.88,0 -66.87,188.39 0,-188.39 -51.88,0 0,342.5 m 208.15,0 51.41,0 67.34,-189.71 0,189.71 51.88,0 0,-342.5 -51.88,0 -66.87,188.39 0,-188.39 -51.88,0 0,342.5 m 264.07,-211.87 19.46,123.1 19.68,-123.1 -39.14,0 z m 60.01,-130.63 57.89,0 -67.39,342.5 -60.79,0 -66.82,-342.5 56.45,0 8.89,56.25 62.73,0 9.04,-56.25 m 199.32,342.5 55,0 0,-119.37 60,0 0,119.37 55.62,0 0,-342.5 -55.62,0 0,138.75 -60,0 0,-138.75 -55,0 0,342.5"
           id="path256"
           inkscape:connector-curvature="0"
           style="fill:#007300;fill-rule:nonzero" /></g><g
         transform="scale(0.1,0.1)"
         id="g258"
         style="stroke-width:2.5;stroke-opacity:0"><path
           d="m 3649.43,4941.32 c 6.8,15.07 15.82,22.61 27.07,22.61 11.57,0 20.75,-7.43 27.54,-22.26 6.8,-14.85 10.2,-38.34 10.2,-70.51 0,-38.22 -3.24,-64.71 -9.73,-79.47 -6.48,-14.76 -15.66,-22.14 -27.54,-22.14 -11.56,0 -20.74,7.53 -27.54,22.61 -6.79,15.07 -10.19,39.85 -10.19,74.34 0,34.81 3.4,59.74 10.19,74.82 z m -52.91,-174.38 c 8.2,-26.6 18.93,-46.05 32.19,-58.33 13.26,-12.29 30.04,-18.43 50.33,-18.43 19.82,0 36.4,7.11 49.74,21.34 13.34,14.23 23.52,34.14 30.54,59.73 7.03,25.59 10.54,58.38 10.54,98.36 0,55.07 -8.07,97.89 -24.22,128.46 -16.16,30.56 -39.14,45.86 -68.94,45.86 -29.02,0 -51.69,-15.56 -68,-46.67 -16.31,-31.12 -24.46,-74.6 -24.46,-130.44 0,-39.98 4.09,-73.27 12.28,-99.88 m 314.63,271.36 55,0 0,-203.94 c 0,-20.22 -1.68,-39.31 -5.04,-57.28 -3.36,-17.97 -8.54,-33.67 -15.56,-47.13 -7.03,-13.45 -14.37,-22.91 -22.01,-28.35 -10.79,-7.62 -23.74,-11.42 -38.87,-11.42 -8.75,0 -18.28,1.17 -28.58,3.49 -10.3,2.33 -18.92,6.96 -25.86,13.88 -6.96,6.92 -13.28,16.77 -18.98,29.52 -5.7,12.75 -9.64,25.9 -11.82,39.43 -3.43,21.78 -5.15,41.07 -5.15,57.86 l 0,203.94 55,0 0,-208.67 c 0,-18.65 2.75,-33.24 8.26,-43.72 5.51,-10.49 13.07,-15.73 22.67,-15.73 9.6,0 17.17,5.16 22.67,15.5 5.51,10.33 8.27,24.98 8.27,43.95 l 0,208.67 m 76.91,-228.8 52.5,6.3 c 1.08,-16.35 3.33,-28.8 6.74,-37.35 5.75,-13.85 13.89,-20.77 24.45,-20.77 7.75,0 13.76,3.52 18.02,10.59 4.27,7.07 6.41,15.27 6.41,24.59 0,8.85 -2.03,16.77 -6.07,23.76 -4.06,6.99 -13.48,13.59 -28.27,19.81 -24.31,10.39 -41.61,24.22 -51.88,41.48 -10.44,17.25 -15.65,39.25 -15.65,65.98 0,17.57 2.68,34.16 8.07,49.78 5.37,15.63 13.41,27.9 24.1,36.85 10.68,8.93 25.31,13.41 43.88,13.41 22.93,0 40.4,-8.16 52.41,-24.46 12.02,-16.31 19.19,-42.24 21.54,-77.8 l -51.88,-5.87 c -1.41,15.49 -4.36,26.76 -8.84,33.81 -4.47,7.04 -10.63,10.57 -18.48,10.57 -6.45,0 -11.31,-2.61 -14.61,-7.82 -3.3,-5.2 -4.94,-11.53 -4.94,-18.98 0,-5.44 1.3,-10.33 3.93,-14.68 2.62,-4.51 8.84,-8.7 18.65,-12.57 24.15,-9.95 41.44,-20.02 51.88,-30.21 10.43,-10.2 18.03,-22.83 22.78,-37.93 4.75,-15.1 7.13,-31.97 7.13,-50.65 0,-21.94 -3.19,-42.16 -9.57,-60.68 -6.38,-18.52 -15.24,-32.56 -26.59,-42.13 -11.35,-9.57 -25.66,-14.35 -42.91,-14.35 -30.32,0 -51.36,11.23 -63.09,33.69 -11.75,22.46 -18.32,51.01 -19.71,85.63 m 184.83,228.8 148.13,0 0,-73.12 -92.5,0 0,-54.38 85.62,0 0,-70 -85.62,0 0,-67.5 95,0 0,-77.5 -150.63,0 0,342.5"
           id="path260"
           inkscape:connector-curvature="0"
           style="fill:#007300;fill-rule:nonzero" /></g></g></g></svg>