<?xml version="1.0" encoding="UTF-8" standalone="no"?>
<svg
   xmlns:dc="http://purl.org/dc/elements/1.1/"
   xmlns:cc="http://creativecommons.org/ns#"
   xmlns:rdf="http://www.w3.org/1999/02/22-rdf-syntax-ns#"
   xmlns:svg="http://www.w3.org/2000/svg"
   xmlns="http://www.w3.org/2000/svg"
   xmlns:sodipodi="http://sodipodi.sourceforge.net/DTD/sodipodi-0.dtd"
   xmlns:inkscape="http://www.inkscape.org/namespaces/inkscape"
   width="715.77997"
   height="631.06024"
   id="svg2"
   version="1.1"
   inkscape:version="0.91 r13725"
   sodipodi:docname="caution.svg">
  <!--metadata
     id="metadata15">
    <rdf:RDF>
      <cc:Work
         rdf:about="">
        <dc:format>image/svg+xml</dc:format>
        <dc:type
           rdf:resource="http://purl.org/dc/dcmitype/StillImage" />
        <dc:title></dc:title>
      </cc:Work>
    </rdf:RDF>
  </metadata-->
  <defs
     id="defs13" />
  <!--sodipodi:namedview
     pagecolor="#ffffff"
     bordercolor="#666666"
     borderopacity="1"
     objecttolerance="10"
     gridtolerance="10"
     guidetolerance="10"
     inkscape:pageopacity="0"
     inkscape:pageshadow="2"
     inkscape:window-width="882"
     inkscape:window-height="711"
     id="namedview11"
     showgrid="false"
     fit-margin-top="1"
     fit-margin-left="1"
     fit-margin-right="0.7"
     fit-margin-bottom="1"
     inkscape:zoom="0.21024499"
     inkscape:cx="386.64602"
     inkscape:cy="133.69304"
     inkscape:window-x="702"
     inkscape:window-y="223"
     inkscape:window-maximized="0"
     inkscape:current-layer="svg2" /-->
  <g
     id="layer1"
     transform="translate(-10.20399,-63.882802)">
    <g
       id="g2119"
       style="fill-rule:evenodd;stroke:#000000;stroke-linecap:round">
      <path
         id="path1825"
         d="m 368.19,70.168 c -8.7664,0.43101 -16.707,5.2812 -21.098,12.881 -109.06,188.92 -218.12,377.83 -327.18,566.75 -4.6183,7.9943 -4.6143,17.84 0,25.837 4.6143,7.9971 13.126,12.929 22.358,12.931 217.22,0.042 434.43,0.084 651.65,0.12604 9.2108,-0.005 17.714,-4.9123 22.333,-12.881 4.6197,-7.9684 4.6478,-17.791 0.0756,-25.787 -108.15,-188.96 -216.31,-377.92 -324.46,-566.88 -4.8254,-8.436 -13.962,-13.452 -23.669,-12.982 z"
         inkscape:connector-curvature="0"
         style="fill:none;stroke-width:12.5" />
      <path
         id="path1937"
         d="m 369.45,97.039 c -108.76,188.39 -217.52,376.77 -326.28,565.16 216.61,0.0419 433.22,0.0842 649.83,0.12604 -107.85,-188.44 -215.7,-376.85 -323.55,-565.29 z"
         inkscape:connector-curvature="0"
         style="fill:#ffcc00;stroke-width:29.44400024;stroke-linejoin:round" />
    </g>
  </g>
  <g
     id="g4359"
     transform="matrix(0.9257,0,0,0.9257,-565.74399,-36.068802)"
     style="stroke-linecap:round">
    <path
       id="path3656"
       d="m 1050.1,587.87 a 46.869,46.869 0 1 1 -93.737,0 46.869,46.869 0 1 1 93.737,0 z"
       inkscape:connector-curvature="0"
       style="fill:#030303;stroke-width:0" />
    <path
       id="path4355"
       d="m 998.03,214.59 c -26.416,0.39674 -47.519,22.115 -47.156,48.531 l 7.5,200.88 c 0.64423,17.255 3.827,30.825 18.74,39.529 14.913,8.704 28.357,8.704 43.27,0 14.913,-8.704 18.096,-22.274 18.74,-39.529 l 7.5,-200.88 c 0.1775,-12.936 -4.8872,-25.393 -14.041,-34.535 -9.1537,-9.1419 -21.617,-14.191 -34.553,-13.996 z"
       inkscape:connector-curvature="0"
       style="fill-rule:evenodd;stroke-width:95.75" />
  </g>
</svg>
