<?xml version="1.0" encoding="UTF-8" standalone="no"?>
<svg
   xmlns:dc="http://purl.org/dc/elements/1.1/"
   xmlns:cc="http://creativecommons.org/ns#"
   xmlns:rdf="http://www.w3.org/1999/02/22-rdf-syntax-ns#"
   xmlns:svg="http://www.w3.org/2000/svg"
   xmlns="http://www.w3.org/2000/svg"
   xmlns:sodipodi="http://sodipodi.sourceforge.net/DTD/sodipodi-0.dtd"
   xmlns:inkscape="http://www.inkscape.org/namespaces/inkscape"
   viewBox="0 0 179.60001 179.60014"
   id="svg2"
   version="1.1"
   inkscape:version="0.91 r13725"
   sodipodi:docname="important.svg"
   width="179.60001"
   height="179.60014">
  <metadata
     id="metadata20">
    <rdf:RDF>
      <cc:Work
         rdf:about="">
        <dc:format>image/svg+xml</dc:format>
        <dc:type
           rdf:resource="http://purl.org/dc/dcmitype/StillImage" />
        <dc:title></dc:title>
      </cc:Work>
    </rdf:RDF>
  </metadata>
  <sodipodi:namedview
     pagecolor="#ffffff"
     bordercolor="#666666"
     borderopacity="1"
     objecttolerance="10"
     gridtolerance="10"
     guidetolerance="10"
     inkscape:pageopacity="0"
     inkscape:pageshadow="2"
     inkscape:window-width="688"
     inkscape:window-height="480"
     id="namedview18"
     showgrid="false"
     fit-margin-left="1"
     fit-margin-top="1"
     fit-margin-right="1"
     fit-margin-bottom="1"
     inkscape:zoom="1.2756757"
     inkscape:cx="89.5"
     inkscape:cy="89.50002"
     inkscape:window-x="824"
     inkscape:window-y="339"
     inkscape:window-maximized="0"
     inkscape:current-layer="svg2" />
  <defs
     id="defs4">
    <clipPath
       id="clipPath6">
      <path
         d="m 304.32,421.22 135.42,0 0,119.1 -135.42,0 0,-119.1 z"
         id="path8"
         inkscape:connector-curvature="0" />
    </clipPath>
  </defs>
  <g
     transform="translate(-3,-869.76205)"
     id="g10">
    <path
       d="m 92.8,871.06208 4.5,0 4.5,0.3 4.5,0.6 4.2,0.9 4.5,0.9 4.2,1.2 3.9,1.5 4.2,1.5 3.9,1.8 3.9,1.8 3.6,2.4 3.6,2.1 3.6,2.4 3.3,2.7 3,3 3.3,2.7 2.7,3.3 3,3 2.7,3.3 2.4,3.6 2.1,3.6 2.4,3.6 3.6,7.8 1.5,4.2 1.5,3.9 1.2,4.2 0.9,4.5 0.9,4.2 0.6,4.5 0.3,4.5 0,9 -0.3,4.5 -0.6,4.5 -0.9,4.2 -0.9,4.5 -1.2,4.2 -1.5,3.90002 -1.5,4.2 -3.6,7.8001 -2.4,3.6 -2.1,3.6 -2.4,3.6 -2.7,3.3 -3,3 -2.7,3.3 -3.3,2.7 -3,3 -3.3,2.7 -3.6,2.4 -3.6,2.1 -3.6,2.4 -7.8,3.6 -4.2,1.5 -3.9,1.5 -4.2,1.2 -4.5,0.9 -4.2,0.9 -4.5,0.6 -4.5,0.3 -9,0 -4.5,-0.3 -4.5,-0.6 -4.2,-0.9 -4.5,-0.9 -4.2,-1.2 -3.9,-1.5 -4.2,-1.5 -3.9,-1.8 -3.9,-1.8 -3.6,-2.4 -3.6,-2.1 -3.6,-2.4 -3.3,-2.7 -3,-3 -3.3,-2.7 -2.7,-3.3 -3,-3 -2.7,-3.3 -2.4,-3.6 -2.1,-3.6 -2.4,-3.6 -1.8,-3.9001 -1.8,-3.9 -1.5,-4.2 -1.5,-3.90002 -1.2,-4.2 -0.9,-4.5 -0.9,-4.2 -0.6,-4.5 -0.3,-4.5 0,-9 0.3,-4.5 0.6,-4.5 0.9,-4.2 0.9,-4.5 1.2,-4.2 1.5,-3.9 1.5,-4.2 1.8,-3.9 1.8,-3.9 2.4,-3.6 2.1,-3.6 2.4,-3.6 2.7,-3.3 3,-3 2.7,-3.3 3.3,-2.7 3,-3 3.3,-2.7 3.6,-2.4 3.6,-2.1 3.6,-2.4 3.9,-1.8 3.9,-1.8 4.2,-1.5 3.9,-1.5 4.2,-1.2 4.5,-0.9 4.2,-0.9 4.5,-0.6 4.5,-0.3 4.5,0"
       stroke-miterlimit="10"
       id="path12"
       inkscape:connector-curvature="0"
       style="fill:none;stroke:#121415;stroke-width:0.60000002;stroke-linecap:round;stroke-linejoin:round;stroke-miterlimit:10" />
    <path
       d="m 92.8,875.26208 4.2,0.3 4.5,0.3 4.2,0.6 3.9,0.6 4.2,0.9 3.9,1.2 3.9,1.5 3.9,1.5 3.6,1.5 3.9,1.8 3.3,2.1 3.6,2.1 3.3,2.4 3,2.7 3,2.4 3,3 3,3 2.4,3 2.7,3 2.4,3.3 2.1,3.6 2.1,3.3 1.8,3.9 1.5,3.6 3,7.8 1.2,3.9 0.9,4.2 0.6,3.9 0.6,4.2 0.3,4.5 0.3,4.2 -0.3,4.2 -0.3,4.5 -0.6,4.2 -0.6,3.9 -0.9,4.2 -1.2,3.9 -3,7.80002 -1.5,3.6 -1.8,3.89998 -2.1,3.30012 -2.1,3.6 -2.4,3.3 -2.7,3 -2.4,3 -3,3 -3,3 -3,2.4 -3,2.7 -3.3,2.4 -3.6,2.1 -3.3,2.1 -3.9,1.8 -3.6,1.5 -3.9,1.5 -3.9,1.5 -3.9,1.2 -4.2,0.9 -3.9,0.6 -4.2,0.6 -4.5,0.3 -4.2,0.3 -4.2,-0.3 -4.5,-0.3 -4.2,-0.6 -3.9,-0.6 -4.2,-0.9 -3.9,-1.2 -3.9,-1.5 -3.9,-1.5 -3.6,-1.5 -3.9,-1.8 -3.3,-2.1 -3.6,-2.1 -3.3,-2.4 -3,-2.7 -3,-2.4 -3,-3 -3,-3 -2.4,-3 -2.7,-3 -2.4,-3.3 -2.1,-3.6 -2.1,-3.30012 -1.8,-3.89998 -1.5,-3.6 -3,-7.80002 -1.2,-3.9 -0.9,-4.2 -0.6,-3.9 -0.6,-4.2 -0.3,-4.5 -0.3,-4.2 0.3,-4.2 0.3,-4.5 0.6,-4.2 0.6,-3.9 0.9,-4.2 1.2,-3.9 3,-7.8 1.5,-3.6 1.8,-3.9 2.1,-3.3 2.1,-3.6 2.4,-3.3 2.7,-3 2.4,-3 3,-3 3,-3 3,-2.4 3,-2.7 3.3,-2.4 3.6,-2.1 3.3,-2.1 3.9,-1.8 3.6,-1.5 3.9,-1.5 3.9,-1.5 3.9,-1.2 4.2,-0.9 3.9,-0.6 4.2,-0.6 4.5,-0.3 4.2,-0.3"
       id="path14"
       inkscape:connector-curvature="0"
       style="fill:#0064ae;fill-rule:evenodd" />
    <path
       d="m 92.8,990.4621 3,0.3 2.4,0.9 2.4,1.2 2.1,1.8 1.8,2.1 1.2,2.39998 0.9,2.70012 0.3,3 -0.3,2.7 -0.9,2.7 -1.2,2.4 -1.8,2.1 -2.1,1.8 -2.4,1.2 -2.4,0.9 -3,0.3 -2.7,-0.3 -2.7,-0.9 -2.4,-1.2 -2.1,-1.8 -1.8,-2.1 -1.2,-2.4 -0.9,-2.7 -0.3,-2.7 0.3,-3 0.9,-2.70012 1.2,-2.39998 1.8,-2.1 2.1,-1.8 2.4,-1.2 2.7,-0.9 2.7,-0.3 z m 14.1,-76.80002 0,-2.1 -0.6,-2.1 -0.9,-2.1 -1.5,-2.1 -1.8,-1.5 -2.1,-1.5 -2.1,-1.2 -2.7,-0.6 -2.4,-0.3 -2.4,0.3 -2.4,0.6 -2.4,1.2 -1.8,1.2 -1.8,1.8 -1.5,2.1 -0.9,2.1 -0.6,2.4 0,0.3 -0.3,0.3 0,2.1 6,57.3 0,1.5 0.6,1.5 0.6,1.5 1.2,1.2 1.2,0.9 1.2,0.6 1.5,0.6 3.3,0 1.5,-0.6 1.2,-0.6 1.2,-0.9 0.9,-1.2 0.9,-1.5 0.3,-1.5 0.3,-1.5 6.3,-58.2"
       id="path16"
       inkscape:connector-curvature="0"
       style="fill:#ffffff;fill-rule:evenodd" />
  </g>
</svg>
