<?xml version="1.0" encoding="UTF-8" standalone="no"?>
<svg
   xmlns:dc="http://purl.org/dc/elements/1.1/"
   xmlns:cc="http://creativecommons.org/ns#"
   xmlns:rdf="http://www.w3.org/1999/02/22-rdf-syntax-ns#"
   xmlns:svg="http://www.w3.org/2000/svg"
   xmlns="http://www.w3.org/2000/svg"
   xmlns:sodipodi="http://sodipodi.sourceforge.net/DTD/sodipodi-0.dtd"
   xmlns:inkscape="http://www.inkscape.org/namespaces/inkscape"
   id="Ebene_1"
   enable-background="new 0 0 385.926 311.852"
   xml:space="preserve"
   height="182.48085"
   viewBox="0 0 206.86357 182.48202"
   width="206.86571"
   version="1.1"
   y="0px"
   x="0px"
   inkscape:version="0.91 r13725"
   sodipodi:docname="fastpath.svg"><!--metadata
     id="metadata23"><rdf:RDF><cc:Work
         rdf:about=""><dc:format>image/svg+xml</dc:format><dc:type
           rdf:resource="http://purl.org/dc/dcmitype/StillImage" /><dc:title></dc:title></cc:Work></rdf:RDF></metadata--><defs
     id="defs21" /><!--sodipodi:namedview
     pagecolor="#ffffff"
     bordercolor="#666666"
     borderopacity="1"
     objecttolerance="10"
     gridtolerance="10"
     guidetolerance="10"
     inkscape:pageopacity="0"
     inkscape:pageshadow="2"
     inkscape:window-width="912"
     inkscape:window-height="818"
     id="namedview19"
     showgrid="false"
     fit-margin-left="1"
     fit-margin-top="1"
     fit-margin-bottom="1"
     fit-margin-right="1"
     inkscape:zoom="0.75677408"
     inkscape:cx="98.899374"
     inkscape:cy="95.094402"
     inkscape:window-x="706"
     inkscape:window-y="0"
     inkscape:window-maximized="0"
     inkscape:current-layer="Ebene_1" /--><g
     id="g3351"
     transform="translate(-94.066217,-68.538994)"><rect
       id="rect3"
       width="45.02"
       height="10.929"
       x="254.91"
       y="142.13" /><rect
       id="rect5"
       width="45.02"
       transform="matrix(-0.866,-0.5,0.5,-0.866,403.92,483.33)"
       height="10.928"
       x="244.2"
       y="182.09" /><rect
       id="rect7"
       width="45.02"
       transform="matrix(-0.5,-0.866,0.866,-0.5,168.42,530.85)"
       height="10.929"
       x="214.94"
       y="211.34" /><rect
       id="rect9"
       width="10.929"
       height="45.021"
       x="192.03"
       y="205" /><rect
       id="rect11"
       width="10.929"
       transform="matrix(-0.8661,-0.5,0.5,-0.8661,185.57,483.33)"
       height="45.02"
       x="152.07001"
       y="194.3" /><rect
       id="rect13"
       width="45.02"
       transform="matrix(0.866,-0.5,0.5,0.866,-76.588,89.262)"
       height="10.929"
       x="105.77"
       y="182.09" /><rect
       id="rect15"
       width="45.02"
       height="10.928"
       x="95.063004"
       y="142.13" /><path
       id="path17"
       d="m 220.82,110.87 c -1.968,-1.16 -2.506,-2.965 -2.506,-5.028 l 0,-33.299 c -6.597,-1.956 -13.583,-3.004 -20.814,-3.004 -7.231,0 -14.218,1.049 -20.815,3.004 l 0,33.299 c 0,2.063 -0.537,3.868 -2.506,5.028 -12.423,7.321 -20.256,21.341 -20.256,36.799 0,24.028 19.548,43.577 43.577,43.577 24.028,0 43.576,-19.549 43.576,-43.577 0,-15.46 -7.83,-29.48 -20.25,-36.8 z m -13.44,-5.03 c 0,8.524 4.941,12.708 7.886,14.443 9.177,5.409 14.877,15.9 14.877,27.384 0,18.002 -14.647,32.648 -32.648,32.648 -18.003,0 -32.648,-14.646 -32.648,-32.648 0,-11.483 5.701,-21.975 14.877,-27.384 2.945,-1.735 7.857,-5.919 7.857,-14.443 l 0,-11.319 c 3.215,-0.598 6.52,-0.944 9.908,-0.944 3.383,0 6.681,0.345 9.892,0.94 -0.01,0.004 -0.01,8.133 -0.01,11.323 z"
       inkscape:connector-curvature="0" /></g></svg>