<?xml version="1.0" encoding="UTF-8" standalone="no"?>
<svg
   xmlns:dc="http://purl.org/dc/elements/1.1/"
   xmlns:cc="http://creativecommons.org/ns#"
   xmlns:rdf="http://www.w3.org/1999/02/22-rdf-syntax-ns#"
   xmlns:svg="http://www.w3.org/2000/svg"
   xmlns="http://www.w3.org/2000/svg"
   xmlns:sodipodi="http://sodipodi.sourceforge.net/DTD/sodipodi-0.dtd"
   xmlns:inkscape="http://www.inkscape.org/namespaces/inkscape"
   viewBox="0 0 58.916348 59.42271"
   id="svg2"
   version="1.1"
   inkscape:version="0.91 r13725"
   sodipodi:docname="note-2.svg"
   width="58.916348"
   height="59.42271">
  <!--metadata
     id="metadata30">
    <rdf:RDF>
      <cc:Work
         rdf:about="">
        <dc:format>image/svg+xml</dc:format>
        <dc:type
           rdf:resource="http://purl.org/dc/dcmitype/StillImage" />
        <dc:title></dc:title>
      </cc:Work>
    </rdf:RDF>
  </metadata-->
  <defs
     id="defs28" />
  <!--sodipodi:namedview
     pagecolor="#ffffff"
     bordercolor="#666666"
     borderopacity="1"
     objecttolerance="10"
     gridtolerance="10"
     guidetolerance="10"
     inkscape:pageopacity="0"
     inkscape:pageshadow="2"
     inkscape:window-width="874"
     inkscape:window-height="752"
     id="namedview26"
     showgrid="false"
     fit-margin-top="1"
     fit-margin-left="1"
     fit-margin-right="1"
     fit-margin-bottom="1"
     inkscape:zoom="3.9333333"
     inkscape:cx="29.279202"
     inkscape:cy="30.01052"
     inkscape:window-x="702"
     inkscape:window-y="182"
     inkscape:window-maximized="0"
     inkscape:current-layer="svg2" /-->
  <g
     id="g3358"
     transform="translate(-0.72079823,-0.58780729)">
    <path
       id="path4"
       transform="matrix(0.593672,-0.399964,0.706197,0.692758,-29.02243,38.51413)"
       d="m 43.21329,10.15217 38.93747,0 a 1.66596,1.66596 0 0 1 1.66596,1.66596 l 0,38.63769 a 1.66596,1.66596 0 0 1 -1.66596,1.66596 l -38.93747,0 a 1.66596,1.66596 0 0 1 -1.66596,-1.66596 l 0,-38.63769 a 1.66596,1.66596 0 0 1 1.66596,-1.66596"
       inkscape:connector-curvature="0"
       style="fill:#b3b3b3;fill-rule:evenodd;stroke:#4c4c4c;stroke-width:3.75195003;stroke-linejoin:round" />
    <path
       id="path6"
       transform="matrix(0.593672,-0.399964,0.706197,0.692758,-29.02243,38.51413)"
       d="m 46.34385,16.44761 32.07678,0"
       inkscape:connector-curvature="0"
       style="fill:none;stroke:#4c4c4c;stroke-width:1.875;stroke-linecap:round;stroke-linejoin:round" />
    <path
       id="path8"
       transform="matrix(0.593672,-0.399964,0.706197,0.692758,-29.02243,38.51413)"
       d="m 46.34385,22.35062 32.07678,0"
       inkscape:connector-curvature="0"
       style="fill:none;stroke:#4c4c4c;stroke-width:1.875;stroke-linecap:round;stroke-linejoin:round" />
    <path
       id="path10"
       transform="matrix(0.593672,-0.399964,0.706197,0.692758,-29.02243,38.51413)"
       d="m 46.34385,28.25364 32.07678,0"
       inkscape:connector-curvature="0"
       style="fill:none;stroke:#4c4c4c;stroke-width:1.875;stroke-linecap:round;stroke-linejoin:round" />
    <path
       id="path12"
       transform="matrix(0.593672,-0.399964,0.706197,0.692758,-29.02243,38.51413)"
       d="m 46.34385,34.15665 32.07678,0"
       inkscape:connector-curvature="0"
       style="fill:none;stroke:#4c4c4c;stroke-width:1.875;stroke-linecap:round;stroke-linejoin:round" />
    <path
       id="path14"
       transform="matrix(0.593672,-0.399964,0.706197,0.692758,-29.02243,38.51413)"
       d="m 46.34385,40.05967 32.07678,0"
       inkscape:connector-curvature="0"
       style="fill:none;stroke:#4c4c4c;stroke-width:1.875;stroke-linecap:round;stroke-linejoin:round" />
    <path
       id="path16"
       transform="matrix(0.593672,-0.399964,0.706197,0.692758,-29.02243,38.51413)"
       d="m 46.29566,45.96268 17.78357,0"
       inkscape:connector-curvature="0"
       style="fill:none;stroke:#4c4c4c;stroke-width:1.875;stroke-linecap:round;stroke-linejoin:round" />
    <path
       id="path18"
       transform="matrix(0.547248,-0.315954,0.315954,0.547248,9.973892,33.140416)"
       d="m 48.0974,30.86281 -12.89689,9.38348 7.94665,-13.81769 4.95023,4.43421 z"
       inkscape:connector-curvature="0"
       style="fill:#595959;fill-rule:evenodd;stroke:#333333;stroke-width:3.16474009;stroke-linecap:round;stroke-linejoin:round" />
    <path
       id="path20"
       transform="matrix(-0.61781,-0.132733,0.132733,-0.61781,9.973892,33.140416)"
       d="m -56.32928,9.38724 6.54628,0 0,47.1332 -6.54628,0 z"
       inkscape:connector-curvature="0"
       style="fill:#b3b3b3;fill-rule:evenodd;stroke:#333333;stroke-width:3.16474009;stroke-linecap:round;stroke-linejoin:round" />
    <path
       id="path22"
       transform="matrix(-0.8365,-0.179718,0.179718,-0.8365,90.520642,67.754174)"
       d="m 61.96634,18.72622 a 0.6203,0.6203 0 1 0 -1.2406,0 0.6203,0.6203 0 1 0 1.24056,-2e-5 l -0.62026,2e-5 z"
       inkscape:connector-curvature="0"
       style="fill:#333333;fill-rule:evenodd;stroke:#333333;stroke-width:2.33735991" />
    <path
       id="path24"
       transform="matrix(-0.61781,-0.132733,0.132733,-0.61781,9.973892,33.140416)"
       d="m -54.66413,56.37362 3.34693,0 a 2.05792,2.02935 0 0 1 2.05792,2.02935 2.05792,2.02935 0 0 1 -2.05792,2.02935 l -3.34693,0 a 2.05792,2.02935 0 0 1 -2.05792,-2.02935 2.05792,2.02935 0 0 1 2.05792,-2.02935"
       inkscape:connector-curvature="0"
       style="fill:#cccccc;fill-rule:evenodd;stroke:#333333;stroke-width:3.16474009" />
  </g>
</svg>
