<?xml version="1.0" encoding="UTF-8" standalone="no"?>
<!DOCTYPE svg PUBLIC "-//W3C//DTD SVG 1.1//EN" "http://www.w3.org/Graphics/SVG/1.1/DTD/svg11.dtd">
<!-- Generated by Microsoft Visio, SVG Export warning-en-us.svg Page-1 -->
<svg xmlns="http://www.w3.org/2000/svg" xmlns:xlink="http://www.w3.org/1999/xlink" xmlns:ev="http://www.w3.org/2001/xml-events"
		xmlns:v="http://schemas.microsoft.com/visio/2003/SVGExtensions/" width="1.50694in" height="0.300246in"
		viewBox="0 0 108.5 21.6177" xml:space="preserve" color-interpolation-filters="sRGB" class="st5">
	<v:documentProperties v:langID="1033" v:viewMarkup="false"/>

	<style type="text/css">
	<![CDATA[
		.st1 {fill:#bfbfbf;stroke:#c7c8c8;stroke-width:0.25}
		.st2 {fill:#000000;stroke:none;stroke-linecap:butt;stroke-width:0.375}
		.st3 {fill:none;stroke:none;stroke-width:0.25}
		.st4 {fill:#000000;font-family:Arial Black;font-size:1.16666em}
		.st5 {fill:none;fill-rule:evenodd;font-size:12px;overflow:visible;stroke-linecap:square;stroke-miterlimit:3}
	]]>
	</style>

	<g v:mID="0" v:index="1" v:groupContext="foregroundPage">
		<title>Page-1</title>
		<v:pageProperties v:drawingScale="1" v:pageScale="1" v:drawingUnits="0" v:shadowOffsetX="9" v:shadowOffsetY="-9"/>
		<g id="shape15-1" v:mID="15" v:groupContext="shape" transform="translate(0.25,-1.36769)">
			<title>Rectangle</title>
			<v:userDefs>
				<v:ud v:nameU="visVersion" v:val="VT0(15):26"/>
			</v:userDefs>
			<rect x="0" y="1.6177" width="108" height="20" class="st1"/>
		</g>
		<g id="group8-3" transform="translate(7.32143,-3.98106)" v:mID="8" v:groupContext="group">
			<title>Sheet.8</title>
			<g id="group9-4" v:mID="9" v:groupContext="group">
				<title>Sheet.9</title>
				<g id="shape10-5" v:mID="10" v:groupContext="shape" transform="translate(7.94063,-2.32483)">
					<title>Sheet.10</title>
					<path d="M1.06 19.5 C0.47 19.5 0 19.97 0 20.56 C0 21.14 0.47 21.62 1.06 21.62 C1.64 21.62 2.12 21.14 2.12 20.56
								 C2.12 19.97 1.64 19.5 1.06 19.5 Z" class="st2"/>
				</g>
				<g id="shape11-7" v:mID="11" v:groupContext="shape">
					<title>Sheet.11</title>
					<path d="M17.68 18.92 L10.56 6.59 C10.24 6.03 9.64 5.68 9 5.68 C8.36 5.68 7.76 6.03 7.44 6.59 L0.32 18.92 C0
								 19.47 0 20.16 0.32 20.72 C0.64 21.27 1.24 21.62 1.88 21.62 L16.12 21.62 C16.76 21.62 17.36 21.27
								 17.68 20.72 C18 20.16 18 19.47 17.68 18.92 ZM16.26 19.8 C16.16 19.98 15.97 20.09 15.76 20.09 L2.24
								 20.09 C2.03 20.09 1.84 19.98 1.74 19.8 C1.63 19.62 1.63 19.4 1.74 19.22 L8.5 7.5 C8.6 7.33 8.79
								 7.22 9 7.22 C9.21 7.22 9.4 7.33 9.5 7.51 L16.26 19.22 C16.37 19.4 16.37 19.62 16.26 19.8 Z"
							class="st2"/>
				</g>
				<g id="shape12-9" v:mID="12" v:groupContext="shape" transform="translate(7.94063,-5.0628)">
					<title>Sheet.12</title>
					<path d="M1.06 15.12 C0.47 15.12 0 15.59 0 16.17 L0.41 20.97 C0.41 21.33 0.7 21.62 1.06 21.62 C1.42 21.62 1.71
								 21.33 1.71 20.97 L2.12 16.17 C2.12 15.59 1.64 15.12 1.06 15.12 Z" class="st2"/>
				</g>
			</g>
		</g>
		<g id="shape13-11" v:mID="13" v:groupContext="shape" transform="translate(22.9586,-0.25)">
			<title>Sheet.13</title>
			<desc>WARNING</desc>
			<v:textBlock v:margins="rect(4,4,4,4)"/>
			<v:textRect cx="42.6457" cy="11.6177" width="85.3" height="20"/>
			<rect x="0" y="1.6177" width="85.2914" height="20" class="st3"/>
			<text x="4" y="15.82" class="st4" v:langID="1041"><v:paragraph/><v:tabList/>WARNING</text>		</g>
	</g>
</svg>
